<?xml version="1.0" encoding="UTF-8" standalone="no"?>
<svg
   viewBox="0 0 332.85501 311.40833"
   version="1.1"
   id="svg11275"
   sodipodi:docname="ovary.svg"
   inkscape:version="1.2.1 (9c6d41e4, 2022-07-14)"
   width="332.85501"
   height="311.40833"
   xmlns:inkscape="http://www.inkscape.org/namespaces/inkscape"
   xmlns:sodipodi="http://sodipodi.sourceforge.net/DTD/sodipodi-0.dtd"
   xmlns:xlink="http://www.w3.org/1999/xlink"
   xmlns="http://www.w3.org/2000/svg"
   xmlns:svg="http://www.w3.org/2000/svg"
   xmlns:rdf="http://www.w3.org/1999/02/22-rdf-syntax-ns#"
   xmlns:cc="http://creativecommons.org/ns#"
   xmlns:dc="http://purl.org/dc/elements/1.1/">
  <metadata
     id="metadata11279">
    <rdf:RDF>
      <cc:Work
         rdf:about="">
        <dc:format>image/svg+xml</dc:format>
        <dc:type
           rdf:resource="http://purl.org/dc/dcmitype/StillImage" />
        <dc:title>Female genital system - Front view 1</dc:title>
      </cc:Work>
    </rdf:RDF>
  </metadata>
  <sodipodi:namedview
     pagecolor="#ffffff"
     bordercolor="#666666"
     borderopacity="1"
     objecttolerance="10"
     gridtolerance="10"
     guidetolerance="10"
     inkscape:pageopacity="0"
     inkscape:pageshadow="2"
     inkscape:window-width="1280"
     inkscape:window-height="747"
     id="namedview11277"
     showgrid="false"
     inkscape:zoom="2.5847472"
     inkscape:cx="357.86865"
     inkscape:cy="122.44911"
     inkscape:window-x="0"
     inkscape:window-y="25"
     inkscape:window-maximized="1"
     inkscape:current-layer="g11273"
     inkscape:showpageshadow="2"
     inkscape:pagecheckerboard="0"
     inkscape:deskcolor="#d1d1d1" />
  <defs
     id="defs10829">
    <style
       id="style10799">
      .a, .e, .p, .q, .r {
        fill: none;
      }

      .b {
        fill: #c7c6c6;
      }

      .c {
        fill: #1d1d1b;
      }

      .d {
        fill: #82368c;
      }

      .e, .p {
        stroke: #1d1d1b;
      }

      .e, .p, .q, .r {
        stroke-miterlimit: 10;
      }

      .f {
        fill: #e9500e;
      }

      .g {
        fill: #e54d4f;
      }

      .h {
        fill: #d866a3;
      }

      .i {
        clip-path: url(#a);
      }

      .j {
        fill: url(#b);
      }

      .k {
        clip-path: url(#c);
      }

      .l {
        fill: url(#d);
      }

      .m {
        clip-path: url(#e);
      }

      .n {
        fill: url(#f);
      }

      .o {
        fill: #e9adad;
      }

      .p, .q {
        stroke-width: 0.5px;
      }

      .q {
        stroke: #fff;
      }

      .r {
        stroke: #1d1d1c;
        stroke-linecap: square;
      }

      .s {
        fill: #1d1d1c;
      }
    </style>
    <clipPath
       id="a">
      <path
         class="a"
         d="m 317,116.82 -4.45,4.46 c -2.26,2.26 -21,18 -23.73,19.46 -1.23,0.64 -2.4,1.26 -3.08,1.72 a 7.79,7.79 0 0 1 -2.15,1 c -2.7,0.82 -6.65,0.92 -9.83,1 h -1.6 c -3.47,0.1 -8.78,1.27 -12.22,1.91 -3.44,0.64 -11,4.51 -15.83,4.51 -4.83,0 -12.38,-3.86 -15.83,-4.51 -3.45,-0.65 -8.75,-1.82 -12.22,-1.91 h -1.6 c -3.18,-0.08 -7.12,-0.18 -9.83,-1 a 7.81,7.81 0 0 1 -2.15,-1 c -0.68,-0.46 -1.85,-1.07 -3.08,-1.72 -2.73,-1.44 -21.48,-17.2 -23.74,-19.46 l -4.45,-4.46 C 151.43,97 131,76.57 116.11,76.57 a 13.57,13.57 0 0 0 -6.44,1.54 C 104.44,80.83 102,89.38 101,93 c -2.18,7.73 1.16,13.13 5.37,20 0.63,1 1.28,2.08 1.92,3.17 a 62.81,62.81 0 0 1 4.54,8.48 30.68,30.68 0 0 1 1.12,17.35 l -0.32,0.49 c -0.47,0.73 -1.14,1.86 -1.84,3.2 0.19,0 0.35,0.07 0.47,0.1 a 2.58,2.58 0 0 1 0.88,0.43 4.22,4.22 0 0 1 1.77,-2.1 2.79,2.79 0 0 1 1.35,-0.35 c 1.65,0 2.47,1.16 3.08,2.89 -0.24,-2.18 0.08,-4 2.09,-4.57 a 3,3 0 0 1 0.78,-0.11 c 2.06,0 3.55,2.11 5.7,5.7 -1.2,-2.67 -1.53,-4.25 -0.26,-5.41 a 2.53,2.53 0 0 1 1.71,-0.66 5.09,5.09 0 0 1 2.84,1.16 2.68,2.68 0 0 1 0.56,-1.15 c -3.86,-0.92 -7.5,-3.17 -8.82,-6.9 -1.11,-3.07 -2.69,-7.28 -4.68,-12.49 -0.47,-1.23 -2.17,-3 -3.8,-4.72 a 32.62,32.62 0 0 1 -4.45,-5.34 c -4.29,-7.24 -6,-15.61 -4.4,-21.33 0.75,-2.64 2.8,-4.79 6.24,-6.6 l 0.18,-0.1 a 11.52,11.52 0 0 1 5.91,-1.54 c 5.49,0 12.64,3.3 21.23,9.81 8.59,6.51 17.88,16.32 25.26,24.13 2.7,2.86 5.24,5.56 7.39,7.7 5.14,5.14 23.53,20.41 25.35,21.2 0.4,0.17 0.75,0.32 1.06,0.48 a 20.64,20.64 0 0 0 3.88,1.48 33.34,33.34 0 0 0 8.77,1 20.42,20.42 0 0 0 4,-0.5 19.4,19.4 0 0 1 3.68,-0.46 c 1.49,0 2.82,1.08 4.57,2.63 1.75,1.55 1.69,2.28 2.31,3.21 1.49,2.25 -0.32,4.6 -0.31,6.89 0.01,2.29 1.41,6.73 2.34,9.3 0.93,2.57 0.46,7.27 1,10.74 0.54,3.47 9.67,19.63 10.59,23.24 0.92,3.61 -1.94,4 -1.84,7.06 0.1,3.06 2.58,8.73 3.11,12.21 0,0.07 0,1.27 0,1.27 a 3.29,3.29 0 0 1 -1.21,2.26 c 0.08,0.5 0.84,3.83 -0.39,3.69 l -1,-0.1 a 43.49,43.49 0 0 1 -6,-0.95 c 1.12,1.26 2.36,2.05 4.8,4.44 3.44,3.38 4.29,2.81 4,5.62 -0.29,2.81 -1.91,3 -1.8,5.7 0.1,2.18 2.22,4.5 2.29,7 0.05,2.25 -1.94,4.67 -1.9,7.15 0,2.29 2.12,4.64 2.15,7.08 0.03,2.44 -2,4.71 -2,7.13 0,2.42 2,4.71 2,7.11 0,2.4 -2,4.72 -2.06,7.11 -0.06,2.39 2,4.75 2,7.13 0,2.38 -2.09,4.72 -2.13,7.08 -0.04,2.36 2,4.79 1.92,7.15 -0.08,2.36 -2.14,4.72 -2.2,7.06 -0.06,2.34 1.92,4.85 1.85,7.17 -0.07,2.32 -2.19,4.75 -2.29,7 -0.08,2.47 1.87,4.95 1.76,7.18 -0.11,2.56 -2.27,4.82 -2.41,7 -0.17,2.71 1.69,5.25 1.51,7.25 a 28.89,28.89 0 0 1 -0.56,3.83 c -0.07,0 -0.06,0.13 0,0.25 h 8.7 c 0.07,-0.12 0.08,-0.22 0,-0.25 a 28.89,28.89 0 0 1 -0.56,-3.83 c -0.18,-2 1.67,-4.54 1.5,-7.25 -0.14,-2.17 -2.3,-4.43 -2.41,-7 -0.11,-2.24 1.84,-4.71 1.76,-7.18 -0.1,-2.29 -2.22,-4.6 -2.29,-7 -0.07,-2.4 1.91,-4.75 1.85,-7.17 -0.06,-2.42 -2.16,-4.67 -2.2,-7.06 -0.04,-2.39 2,-4.76 1.92,-7.15 -0.08,-2.39 -2.1,-4.71 -2.13,-7.08 -0.03,-2.37 2,-4.76 2,-7.13 0,-2.37 -2.08,-4.77 -2.06,-7.11 0.02,-2.34 2,-4.78 2,-7.11 0,-2.33 -2,-4.82 -2,-7.13 0,-2.31 2.1,-4.79 2.15,-7.08 0,-2.49 -2,-4.9 -1.89,-7.15 0.07,-2.54 2.19,-4.86 2.29,-7 0.11,-2.7 -1.55,-2.89 -1.8,-5.7 -0.25,-2.81 0.6,-2.24 4,-5.62 2.44,-2.39 3.68,-3.19 4.8,-4.44 a 43.49,43.49 0 0 1 -6,0.95 l -1,0.1 c -1.23,0.14 -0.47,-3.19 -0.39,-3.69 A 3.29,3.29 0 0 1 246.8,224 c 0,0 0,-1.2 0,-1.27 0.53,-3.48 3,-9.1 3.11,-12.21 0.11,-3.11 -2.75,-3.44 -1.84,-7.06 0.91,-3.62 10.06,-19.76 10.59,-23.24 0.53,-3.48 0.1,-8.17 1,-10.74 0.9,-2.57 2.34,-7 2.34,-9.3 0,-2.3 -1.8,-4.64 -0.31,-6.89 0.63,-0.94 0.54,-1.65 2.31,-3.21 1.77,-1.56 3.08,-2.63 4.57,-2.63 a 19.39,19.39 0 0 1 3.68,0.46 20.41,20.41 0 0 0 4,0.5 33.34,33.34 0 0 0 8.77,-1 20.63,20.63 0 0 0 3.87,-1.48 c 0.31,-0.15 0.65,-0.31 1.06,-0.48 1.83,-0.78 20.21,-16.05 25.35,-21.2 2.15,-2.14 4.68,-4.83 7.39,-7.7 C 330.1,108.72 339.27,99 348,92.4 c 8.73,-6.6 15.74,-9.81 21.23,-9.81 a 11.51,11.51 0 0 1 5.91,1.54 l 0.18,0.1 c 3.44,1.8 5.49,4 6.24,6.6 1.63,5.73 -0.11,14.1 -4.4,21.33 a 32.62,32.62 0 0 1 -4.45,5.34 c -1.63,1.72 -3.33,3.49 -3.8,4.72 -2,5.21 -3.57,9.42 -4.68,12.49 -1.32,3.73 -5,6 -8.82,6.9 a 2,2 0 0 1 0.39,0.63 2.1,2.1 0 0 1 0.17,0.52 5.09,5.09 0 0 1 2.84,-1.16 2.53,2.53 0 0 1 1.72,0.66 c 1.27,1.16 0.93,2.74 -0.26,5.41 2.15,-3.59 3.64,-5.7 5.7,-5.7 a 3,3 0 0 1 0.78,0.11 c 2,0.6 2.33,2.39 2.09,4.57 0.61,-1.73 1.43,-2.89 3.08,-2.89 a 2.8,2.8 0 0 1 1.35,0.35 4.22,4.22 0 0 1 1.77,2.1 2.58,2.58 0 0 1 0.88,-0.43 c 0.13,0 0.28,-0.07 0.47,-0.1 -0.7,-1.34 -1.37,-2.47 -1.84,-3.2 l -0.32,-0.49 a 30.67,30.67 0 0 1 1.11,-17.28 62.81,62.81 0 0 1 4.54,-8.48 c 0.64,-1.09 1.3,-2.14 1.92,-3.17 4.21,-6.86 7.54,-12.27 5.37,-20 -1,-3.66 -3.44,-12.21 -8.67,-14.94 A 13.56,13.56 0 0 0 372,76.57 c -14.9,0 -35.32,20.47 -55.07,40.25"
         id="path10801" />
    </clipPath>
    <linearGradient
       id="b"
       x1="772.58002"
       y1="-685.84003"
       x2="773.58002"
       y2="-685.84003"
       gradientTransform="matrix(0,278.82,278.82,0,191468.34,-215305.74)"
       gradientUnits="userSpaceOnUse">
      <stop
         offset="0"
         stop-color="#f5a272"
         id="stop10804" />
      <stop
         offset="0.86"
         stop-color="#f5a272"
         id="stop10806" />
      <stop
         offset="0.91"
         stop-color="#fff"
         id="stop10808" />
      <stop
         offset="1"
         stop-color="#fff"
         id="stop10810" />
    </linearGradient>
    <clipPath
       id="c">
      <path
         class="a"
         d="m 224.48,341.33 a 0.75,0.75 0 0 1 -0.09,0.12 3.32,3.32 0 0 0 -4.7,4.57 2.25,2.25 0 0 0 -0.36,0.3 3,3 0 0 0 0.06,4.18 2.93,2.93 0 0 0 1.06,0.64 0.58,0.58 0 0 1 0.36,0.37 6.32,6.32 0 0 0 8.23,3.88 0.65,0.65 0 0 1 0.43,0 2.44,2.44 0 0 0 1.14,0.21 c 0.51,0 0.82,-0.5 1.36,-0.48 a 51.72,51.72 0 0 1 5.71,4 l 0.26,-1.06 c 0,0 -4.79,-4.06 -5,-4.3 -0.36,-0.42 0.09,-0.51 0.08,-0.78 a 2.35,2.35 0 0 0 -0.12,-0.61 0.65,0.65 0 0 1 0.07,-0.52 5.72,5.72 0 0 0 0.79,-1.69 0.68,0.68 0 0 1 0.2,-0.29 1.9,1.9 0 0 0 0,-3 0.59,0.59 0 0 1 -0.21,-0.28 6.36,6.36 0 0 0 -1.64,-2.71 6.18,6.18 0 0 0 -2.84,-1.57 2.8,2.8 0 0 0 -0.68,-1 2.9,2.9 0 0 0 -4.1,0.07"
         id="path10813" />
    </clipPath>
    <linearGradient
       id="d"
       x1="799.35999"
       y1="-1177.85"
       x2="800.35999"
       y2="-1177.85"
       gradientTransform="matrix(0,3.03,3.03,0,3799.65,-2063.08)"
       gradientUnits="userSpaceOnUse">
      <stop
         offset="0"
         stop-color="#34669a"
         id="stop10816" />
      <stop
         offset="0.26"
         stop-color="#34669a"
         id="stop10818" />
      <stop
         offset="0.71"
         stop-color="#fff"
         id="stop10820" />
      <stop
         offset="1"
         stop-color="#fff"
         id="stop10822" />
    </linearGradient>
    <clipPath
       id="e">
      <path
         class="a"
         d="m 259.59,341.44 a 2.79,2.79 0 0 0 -0.68,1 6.18,6.18 0 0 0 -2.84,1.57 6.37,6.37 0 0 0 -1.64,2.71 0.6,0.6 0 0 1 -0.21,0.28 1.9,1.9 0 0 0 0,3 0.69,0.69 0 0 1 0.2,0.29 5.75,5.75 0 0 0 0.79,1.69 0.65,0.65 0 0 1 0.07,0.52 2.4,2.4 0 0 0 -0.12,0.61 c 0,0.27 0.45,0.37 0.08,0.78 -0.21,0.23 -5,4.3 -5,4.3 l 0.26,1.06 a 52,52 0 0 1 5.71,-3.95 c 0.54,0 0.85,0.45 1.36,0.48 a 2.4,2.4 0 0 0 1.14,-0.21 0.65,0.65 0 0 1 0.43,0 6.32,6.32 0 0 0 8.23,-3.88 0.58,0.58 0 0 1 0.36,-0.37 2.91,2.91 0 0 0 1.12,-4.82 2.36,2.36 0 0 0 -0.36,-0.31 3.32,3.32 0 0 0 -4.71,-4.57 0.79,0.79 0 0 1 -0.09,-0.12 2.9,2.9 0 0 0 -4.1,-0.07"
         id="path10825" />
    </clipPath>
    <linearGradient
       id="f"
       x1="1244.49"
       y1="-821.22998"
       x2="1245.49"
       y2="-821.22998"
       gradientTransform="matrix(-3.03,0,0,-3.03,4022.73,-2140.28)"
       xlink:href="#d" />
    <linearGradient
       inkscape:collect="always"
       xlink:href="#d"
       id="linearGradient465"
       gradientUnits="userSpaceOnUse"
       gradientTransform="matrix(0,3.03,3.03,0,3799.65,-2063.08)"
       x1="799.35999"
       y1="-1177.85"
       x2="800.35999"
       y2="-1177.85" />
  </defs>
  <title
     id="title10831">Female genital system - Front view 1</title>
  <g
     id="g11273"
     transform="translate(-97.798752,-74.17615)">
    <path
       class="b"
       d="m 204.49,151.85 c -6,5.61 -43.75,4.86 -49.53,2 -5.78,-2.86 -8.37,34 1,26.54 9.37,-7.46 26.36,-22.72 46.31,-22.91"
       id="path10833" />
    <path
       class="c"
       d="m 204.84,152.22 a 11.3,11.3 0 0 1 -4,1.87 41.69,41.69 0 0 1 -4.23,0.89 c -2.83,0.44 -5.68,0.69 -8.53,0.88 -5.7,0.35 -11.41,0.36 -17.12,0.26 -2.85,-0.08 -5.71,-0.19 -8.56,-0.48 -1.43,-0.14 -2.85,-0.32 -4.26,-0.57 a 18.93,18.93 0 0 1 -2.12,-0.5 7.48,7.48 0 0 1 -1.05,-0.39 1.18,1.18 0 0 0 -0.81,-0.14 2.56,2.56 0 0 0 -1.32,1.25 10.86,10.86 0 0 0 -0.85,1.89 27,27 0 0 0 -1,4.09 49.64,49.64 0 0 0 -0.78,8.45 28.48,28.48 0 0 0 1,8.36 7.55,7.55 0 0 0 0.86,1.85 2.36,2.36 0 0 0 1.47,1.08 2.68,2.68 0 0 0 1.79,-0.49 c 0.56,-0.35 1.11,-0.84 1.67,-1.27 4.43,-3.58 8.88,-7.19 13.65,-10.35 a 82.75,82.75 0 0 1 15.06,-8.16 50.84,50.84 0 0 1 16.61,-3.74 v 1 a 44.5,44.5 0 0 0 -16.57,3.22 70.65,70.65 0 0 0 -14.93,8.17 c -4.69,3.23 -9.09,6.85 -13.54,10.42 a 21.4,21.4 0 0 1 -1.73,1.32 3.32,3.32 0 0 1 -2.25,0.58 3,3 0 0 1 -1.91,-1.36 8.16,8.16 0 0 1 -0.94,-2 29,29 0 0 1 -1,-8.57 50.3,50.3 0 0 1 0.78,-8.57 27.94,27.94 0 0 1 1.07,-4.19 11.67,11.67 0 0 1 0.91,-2 3.15,3.15 0 0 1 1.75,-1.57 1.88,1.88 0 0 1 1.26,0.18 6.94,6.94 0 0 0 1,0.35 20.13,20.13 0 0 0 2,0.48 c 1.39,0.27 2.79,0.47 4.2,0.63 q 4.23,0.48 8.51,0.69 a 129.85,129.85 0 0 0 17.08,-0.23 76.78,76.78 0 0 0 8.46,-1.1 33,33 0 0 0 4.1,-1 10.06,10.06 0 0 0 3.59,-1.87 z"
       id="path10835" />
    <path
       class="c"
       d="m 205.29,156.12 c -4.41,0.29 -8.82,0.62 -13.22,1.09 -4.4,0.47 -8.78,1 -13.14,1.74 -4.36,0.74 -8.69,1.61 -13,2.77 -2.13,0.59 -4.23,1.24 -6.31,2 -1,0.37 -2,0.82 -3.06,1.22 -1.06,0.4 -2,0.93 -3,1.39 l -0.44,-0.9 c 1,-0.42 2.06,-0.87 3.1,-1.27 1.04,-0.4 2.1,-0.76 3.16,-1.08 2.11,-0.68 4.25,-1.28 6.4,-1.81 4.3,-1.08 8.65,-1.93 13,-2.64 4.35,-0.71 8.75,-1.34 13.14,-1.9 l 13.18,-1.59 z"
       id="path10837" />
    <path
       class="c"
       d="m 205.56,156.73 a 114.5,114.5 0 0 0 -11.82,1 112.61,112.61 0 0 0 -11.65,2.21 70.67,70.67 0 0 0 -11.2,3.87 34.87,34.87 0 0 0 -9.84,6.37 l -0.67,-0.75 2.44,-1.78 c 0.84,-0.55 1.72,-1 2.57,-1.55 a 47.4,47.4 0 0 1 5.38,-2.58 80.24,80.24 0 0 1 11.3,-3.68 c 3.83,-1 7.72,-1.75 11.63,-2.42 3.91,-0.67 7.84,-1.19 11.78,-1.68 z"
       id="path10839" />
    <path
       class="c"
       d="m 205.41,154.43 a 49.23,49.23 0 0 1 -6.25,1.15 q -3.12,0.44 -6.26,0.73 c -4.18,0.4 -8.35,0.77 -12.54,1 -4.19,0.23 -8.37,0.45 -12.57,0.55 h -3.15 -3.15 c -1.05,-0.06 -2.11,0 -3.16,-0.17 l -1.59,-0.17 -1.61,-0.33 0.33,-0.94 1.44,0.42 1.52,0.26 c 1,0.18 2.07,0.24 3.1,0.36 l 3.13,0.17 3.14,0.07 c 4.19,0 8.38,-0.13 12.56,-0.35 4.18,-0.22 8.36,-0.65 12.51,-1.19 a 65.79,65.79 0 0 0 12.23,-2.49 z"
       id="path10841" />
    <path
       class="d"
       d="m 109.32,158.84 c 0.83,-3 3.82,-4.82 6.13,-6.92 2.31,-2.1 4.12,-4.84 7.21,-5.85 2.79,-0.91 6.11,0.14 9.34,0.14 3,0 6.24,-1.15 9.33,-0.29 3.09,0.86 5.32,3.53 7.85,5 2.77,1.66 6.16,2.46 8.08,4.68 2.13,2.45 2.32,5.91 3.18,8.72 0.91,3 2.54,6.08 1.7,9.09 -0.84,3.01 -3.82,4.82 -6.13,6.92 -2.31,2.1 -4.12,4.84 -7.2,5.85 -2.79,0.91 -6.11,-0.14 -9.34,-0.14 -3,0 -6.24,1.15 -9.33,0.29 -3.09,-0.86 -5.32,-3.53 -7.85,-5 -2.77,-1.66 -6.16,-2.46 -8.08,-4.68 -2.12,-2.45 -2.32,-5.91 -3.17,-8.72 -0.91,-3 -2.54,-6.08 -1.7,-9.09"
       id="path10843" />
    <path
       class="e"
       d="m 109.32,158.84 c 0.83,-3 3.82,-4.82 6.13,-6.92 2.31,-2.1 4.12,-4.84 7.21,-5.85 2.79,-0.91 6.11,0.14 9.34,0.14 3,0 6.24,-1.15 9.33,-0.29 3.09,0.86 5.32,3.53 7.85,5 2.77,1.66 6.16,2.46 8.08,4.68 2.13,2.45 2.32,5.91 3.18,8.72 0.91,3 2.54,6.08 1.7,9.09 -0.84,3.01 -3.82,4.82 -6.13,6.92 -2.31,2.1 -4.12,4.84 -7.2,5.85 -2.79,0.91 -6.11,-0.14 -9.34,-0.14 -3,0 -6.24,1.15 -9.33,0.29 -3.09,-0.86 -5.32,-3.53 -7.85,-5 -2.77,-1.66 -6.16,-2.46 -8.08,-4.68 -2.12,-2.45 -2.32,-5.91 -3.17,-8.72 -0.92,-3 -2.55,-6.08 -1.72,-9.09 z"
       id="path10845" />
    <path
       class="b"
       d="m 283.26,151.85 c 6,5.61 43.75,4.86 49.53,2 5.78,-2.86 8.37,34 -1,26.54 -9.37,-7.46 -26.36,-22.72 -46.32,-22.91"
       id="path10847" />
    <path
       class="c"
       d="m 283.6,151.49 a 10.06,10.06 0 0 0 3.58,1.87 33.2,33.2 0 0 0 4.11,1 76.77,76.77 0 0 0 8.46,1.1 129.85,129.85 0 0 0 17.08,0.23 q 4.27,-0.21 8.51,-0.69 c 1.41,-0.16 2.82,-0.36 4.2,-0.63 a 20.14,20.14 0 0 0 2,-0.48 7,7 0 0 0 1,-0.35 1.88,1.88 0 0 1 1.26,-0.18 3.15,3.15 0 0 1 1.75,1.57 11.59,11.59 0 0 1 0.91,2 27.72,27.72 0 0 1 1.07,4.19 50.32,50.32 0 0 1 0.78,8.57 29.06,29.06 0 0 1 -1,8.57 8.2,8.2 0 0 1 -0.94,2 3,3 0 0 1 -1.91,1.36 3.32,3.32 0 0 1 -2.25,-0.58 21.56,21.56 0 0 1 -1.73,-1.32 c -4.45,-3.57 -8.85,-7.2 -13.54,-10.42 A 70.6,70.6 0 0 0 302,161.18 44.5,44.5 0 0 0 285.42,158 v -1 a 50.84,50.84 0 0 1 16.73,3.78 82.75,82.75 0 0 1 15.06,8.16 c 4.77,3.16 9.22,6.77 13.65,10.35 0.56,0.44 1.11,0.92 1.66,1.27 a 2.69,2.69 0 0 0 1.8,0.49 2.36,2.36 0 0 0 1.47,-1.08 7.55,7.55 0 0 0 0.86,-1.85 28.48,28.48 0 0 0 1,-8.36 49.65,49.65 0 0 0 -0.78,-8.45 27.12,27.12 0 0 0 -1,-4.09 11,11 0 0 0 -0.85,-1.89 2.55,2.55 0 0 0 -1.32,-1.25 1.18,1.18 0 0 0 -0.81,0.14 7.52,7.52 0 0 1 -1.05,0.38 18.93,18.93 0 0 1 -2.12,0.5 c -1.42,0.25 -2.84,0.43 -4.26,0.57 -2.85,0.29 -5.71,0.4 -8.56,0.48 -5.71,0.11 -11.42,0.1 -17.12,-0.26 -2.85,-0.2 -5.7,-0.44 -8.54,-0.88 a 41.72,41.72 0 0 1 -4.23,-0.89 11.29,11.29 0 0 1 -4,-1.87 z"
       id="path10849" />
    <path
       class="c"
       d="m 282.56,155.13 13.18,1.59 c 4.39,0.57 8.78,1.15 13.14,1.9 4.36,0.75 8.72,1.56 13,2.64 2.15,0.54 4.29,1.13 6.4,1.81 1.06,0.32 2.1,0.72 3.16,1.08 1.06,0.36 2.06,0.85 3.1,1.27 l -0.44,0.9 c -1,-0.46 -2,-1 -3,-1.39 -1,-0.39 -2,-0.85 -3.06,-1.22 -2.07,-0.74 -4.18,-1.39 -6.31,-2 -4.26,-1.16 -8.6,-2 -13,-2.77 -4.4,-0.77 -8.74,-1.29 -13.14,-1.74 -4.4,-0.45 -8.8,-0.8 -13.22,-1.09 z"
       id="path10851" />
    <path
       class="c"
       d="m 282.27,155.73 c 3.94,0.49 7.88,1 11.78,1.68 3.9,0.68 7.8,1.42 11.63,2.42 a 80.38,80.38 0 0 1 11.32,3.67 47.31,47.31 0 0 1 5.38,2.58 c 0.85,0.51 1.73,1 2.57,1.54 l 2.44,1.78 -0.66,0.75 a 34.89,34.89 0 0 0 -9.84,-6.37 70.7,70.7 0 0 0 -11.2,-3.87 112.29,112.29 0 0 0 -11.69,-2.21 114.55,114.55 0 0 0 -11.82,-1 z"
       id="path10853" />
    <path
       class="c"
       d="M 282.67,153.48 A 65.79,65.79 0 0 0 294.9,156 c 4.15,0.54 8.33,0.9 12.51,1.19 4.18,0.29 8.38,0.39 12.56,0.36 l 3.14,-0.08 3.13,-0.17 c 1,-0.12 2.08,-0.17 3.1,-0.36 l 1.53,-0.26 1.44,-0.42 0.34,0.94 -1.61,0.33 -1.59,0.17 c -1.06,0.12 -2.11,0.11 -3.16,0.17 h -3.15 -3.15 c -4.2,-0.1 -8.39,-0.27 -12.57,-0.55 -4.18,-0.28 -8.37,-0.59 -12.54,-1 q -3.13,-0.29 -6.26,-0.73 a 49.4,49.4 0 0 1 -6.25,-1.15 z"
       id="path10855" />
    <path
       class="d"
       d="m 378.43,158.84 c -0.83,-3 -3.82,-4.82 -6.13,-6.92 -2.31,-2.1 -4.12,-4.84 -7.2,-5.85 -2.79,-0.91 -6.11,0.14 -9.34,0.14 -3,0 -6.24,-1.15 -9.33,-0.29 -3.09,0.86 -5.32,3.53 -7.85,5 -2.77,1.66 -6.16,2.46 -8.08,4.68 -2.12,2.45 -2.32,5.91 -3.17,8.72 -0.91,3 -2.54,6.08 -1.7,9.09 0.84,3.01 3.82,4.82 6.13,6.92 2.31,2.1 4.13,4.84 7.21,5.85 2.79,0.91 6.11,-0.14 9.33,-0.14 3,0 6.24,1.15 9.33,0.29 3.09,-0.86 5.32,-3.53 7.85,-5 2.77,-1.66 6.16,-2.46 8.08,-4.68 2.13,-2.45 2.32,-5.91 3.18,-8.72 0.91,-3 2.54,-6.08 1.7,-9.09"
       id="path10857" />
    <path
       class="e"
       d="m 378.43,158.84 c -0.83,-3 -3.82,-4.82 -6.13,-6.92 -2.31,-2.1 -4.12,-4.84 -7.2,-5.85 -2.79,-0.91 -6.11,0.14 -9.34,0.14 -3,0 -6.24,-1.15 -9.33,-0.29 -3.09,0.86 -5.32,3.53 -7.85,5 -2.77,1.66 -6.16,2.46 -8.08,4.68 -2.12,2.45 -2.32,5.91 -3.17,8.72 -0.91,3 -2.54,6.08 -1.7,9.09 0.84,3.01 3.82,4.82 6.13,6.92 2.31,2.1 4.13,4.84 7.21,5.85 2.79,0.91 6.11,-0.14 9.33,-0.14 3,0 6.24,1.15 9.33,0.29 3.09,-0.86 5.32,-3.53 7.85,-5 2.77,-1.66 6.16,-2.46 8.08,-4.68 2.13,-2.45 2.32,-5.91 3.18,-8.72 0.89,-3 2.52,-6.08 1.69,-9.09 z"
       id="path10859" />
    <path
       class="f"
       d="m 245.34,336 c 0.05,2.55 1,4.81 1.06,7 0.07,2.7 -0.75,5.24 -0.67,7.23 0.06,1.63 0.15,2.9 0.25,3.83 l 0.2,0.15 c 2.11,1.88 5.41,-1 7.85,-11.63 2.44,-10.63 1.64,-57 1.88,-68 0.24,-11 2.05,-41.93 1.2,-50.18 -0.23,-2.21 -2.11,-3.78 -4.77,-4.72 a 48.13,48.13 0 0 0 -2.66,6.42 c -0.75,2.86 -1.21,3 -2.73,6.42 -1.52,3.42 -1.9,2.8 -1.79,5.6 0.11,2.8 0.84,3 0.79,5.7 0,2.17 -1,4.48 -1,7 0,2.24 0.86,4.66 0.84,7.13 0,2.29 -0.93,4.63 -0.95,7.08 -0.02,2.45 0.89,4.69 0.89,7.11 0,2.42 -0.91,4.69 -0.9,7.08 0.01,2.39 0.91,4.71 0.92,7.09 0.01,2.38 -0.89,4.75 -0.88,7.12 0.01,2.37 0.93,4.71 0.95,7.07 0.02,2.36 -0.87,4.78 -0.85,7.13 0.02,2.35 1,4.72 1,7 0,2.28 -0.85,4.84 -0.82,7.15 0.03,2.31 1,4.74 1,7 0,2.48 -0.82,4.93 -0.77,7.17"
       id="path10861" />
    <path
       class="c"
       d="m 245.84,336 a 23.23,23.23 0 0 0 0.7,4.39 13,13 0 0 1 0.27,4.66 c -0.15,1.54 -0.49,3 -0.57,4.48 -0.08,1.48 0.1,3 0.24,4.46 l -0.2,-0.36 0.19,0.14 v 0 0 a 1.37,1.37 0 0 0 1.52,0.29 4,4 0 0 0 1.47,-1.24 15.41,15.41 0 0 0 2,-3.74 38.47,38.47 0 0 0 1.36,-4.13 37.59,37.59 0 0 0 0.95,-4.25 c 0.44,-2.87 0.62,-5.81 0.8,-8.74 0.18,-2.93 0.28,-5.87 0.37,-8.81 0.34,-11.76 0.33,-23.53 0.32,-35.3 0,-5.88 -0.07,-11.78 0.19,-17.67 l 0.72,-17.64 c 0.23,-5.88 0.45,-11.76 0.54,-17.64 0,-2.94 0.07,-5.88 -0.07,-8.79 l -0.08,-1.08 a 7.53,7.53 0 0 0 -0.11,-1 3.92,3.92 0 0 0 -0.88,-1.73 8.15,8.15 0 0 0 -3.49,-2.16 l 0.62,-0.26 c -0.53,1.11 -1,2.23 -1.53,3.36 a 22.69,22.69 0 0 0 -1.23,3.43 16.41,16.41 0 0 1 -1.43,3.52 c -0.58,1.1 -1.05,2.19 -1.6,3.34 -0.27,0.57 -0.57,1.13 -0.86,1.66 a 3.43,3.43 0 0 0 -0.49,1.56 12.71,12.71 0 0 0 0.29,3.53 17,17 0 0 1 0.41,1.86 11.13,11.13 0 0 1 0.07,1.95 26.7,26.7 0 0 1 -0.62,3.73 14.3,14.3 0 0 0 -0.36,3.56 33,33 0 0 0 0.65,3.62 14.5,14.5 0 0 1 0.24,3.82 c -0.12,1.29 -0.42,2.5 -0.63,3.7 a 12.14,12.14 0 0 0 -0.21,3.55 c 0.12,1.19 0.4,2.39 0.6,3.63 a 12.7,12.7 0 0 1 0.13,3.84 c -0.16,1.27 -0.45,2.48 -0.63,3.67 a 11.3,11.3 0 0 0 -0.05,3.55 c 0.16,1.19 0.45,2.4 0.64,3.65 a 12.08,12.08 0 0 1 0,3.84 c -0.18,1.25 -0.47,2.46 -0.62,3.65 -0.4,2.37 0.42,4.69 0.75,7.23 0.33,2.54 -0.51,5.11 -0.72,7.46 -0.21,2.35 0.65,4.69 0.89,7.26 0.24,2.57 -0.67,5.07 -0.77,7.43 -0.1,2.36 0.86,4.69 1,7.3 0.14,2.61 -0.79,5 -0.76,7.38 m -1,0 c 0,-2.62 0.87,-5 0.76,-7.36 -0.11,-2.36 -1.11,-4.74 -1,-7.38 0.11,-2.64 1,-5 0.77,-7.31 -0.23,-2.31 -1.17,-4.8 -0.89,-7.43 0.28,-2.63 1.08,-4.9 0.72,-7.26 -0.14,-1.19 -0.44,-2.39 -0.65,-3.63 a 12.18,12.18 0 0 1 -0.1,-3.84 c 0.34,-2.53 1.09,-4.85 0.62,-7.22 -0.18,-1.19 -0.47,-2.4 -0.64,-3.66 a 12.36,12.36 0 0 1 0.06,-3.84 c 0.19,-1.25 0.48,-2.45 0.63,-3.64 a 11.63,11.63 0 0 0 -0.12,-3.56 c -0.19,-1.2 -0.48,-2.41 -0.61,-3.69 a 13.09,13.09 0 0 1 0.22,-3.83 c 0.22,-1.24 0.51,-2.43 0.62,-3.62 a 13.43,13.43 0 0 0 -0.23,-3.57 33.66,33.66 0 0 1 -0.55,-3.73 15.23,15.23 0 0 1 0.38,-3.81 26.12,26.12 0 0 0 0.6,-3.59 10.2,10.2 0 0 0 -0.07,-1.76 16.48,16.48 0 0 0 -0.39,-1.76 13.66,13.66 0 0 1 -0.32,-3.84 4.45,4.45 0 0 1 0.61,-2 c 0.3,-0.56 0.58,-1.08 0.84,-1.64 0.51,-1.09 1,-2.26 1.61,-3.36 a 15.31,15.31 0 0 0 1.36,-3.34 23.71,23.71 0 0 1 1.27,-3.55 c 0.49,-1.15 1,-2.28 1.54,-3.4 l 0.2,-0.41 0.42,0.16 v 0 a 9.09,9.09 0 0 1 3.92,2.45 4.92,4.92 0 0 1 1.1,2.16 8,8 0 0 1 0.13,1.16 l 0.08,1.12 c 0.14,3 0.1,5.91 0.07,8.86 -0.09,5.89 -0.31,11.78 -0.54,17.66 l -0.71,17.64 c -0.25,5.87 -0.17,11.75 -0.19,17.64 0,11.77 0,23.55 -0.33,35.33 -0.09,2.94 -0.2,5.89 -0.37,8.83 -0.17,2.94 -0.37,5.89 -0.82,8.84 a 38.55,38.55 0 0 1 -1,4.36 39.33,39.33 0 0 1 -1.4,4.25 16.35,16.35 0 0 1 -2.17,4 4.92,4.92 0 0 1 -1.88,1.55 2.36,2.36 0 0 1 -1.37,0.15 2.56,2.56 0 0 1 -1.2,-0.62 v 0 l -0.22,-0.15 -0.18,-0.13 v -0.22 c -0.13,-1.54 -0.25,-3 -0.24,-4.61 0.01,-1.61 0.43,-3.05 0.57,-4.53 a 12,12 0 0 0 -0.26,-4.36 24,24 0 0 1 -0.72,-4.57"
       id="path10863" />
    <path
       class="f"
       d="m 242.81,336 c -0.05,2.55 -1,4.81 -1.06,7 -0.08,2.7 0.75,5.24 0.67,7.23 -0.07,1.63 -0.15,2.9 -0.25,3.83 l -0.21,0.15 c -2.11,1.88 -5.41,-1 -7.85,-11.63 -2.44,-10.63 -1.64,-57 -1.88,-68 -0.24,-11 -2.05,-41.93 -1.2,-50.18 0.23,-2.21 2.11,-3.78 4.77,-4.72 a 48.23,48.23 0 0 1 2.66,6.42 c 0.75,2.86 1.21,3 2.73,6.42 1.52,3.42 1.9,2.8 1.79,5.6 -0.11,2.8 -0.84,3 -0.79,5.7 0,2.17 1,4.48 1,7 0,2.24 -0.86,4.66 -0.84,7.13 0,2.29 0.93,4.63 0.94,7.08 0.01,2.45 -0.89,4.69 -0.89,7.11 0,2.42 0.91,4.69 0.9,7.08 -0.01,2.39 -0.91,4.71 -0.92,7.09 -0.01,2.38 0.89,4.75 0.88,7.12 -0.01,2.37 -0.93,4.71 -0.95,7.07 -0.02,2.36 0.87,4.78 0.85,7.13 -0.02,2.35 -1,4.72 -1,7 0,2.28 0.85,4.84 0.82,7.15 -0.03,2.31 -1,4.74 -1,7 0,2.48 0.82,4.93 0.77,7.17"
       id="path10865" />
    <path
       class="c"
       d="m 243.31,336 a 24.15,24.15 0 0 1 -0.72,4.57 14.6,14.6 0 0 0 -0.33,2.17 14.36,14.36 0 0 0 0.07,2.19 c 0.14,1.48 0.48,2.95 0.57,4.53 0.09,1.58 -0.11,3.06 -0.24,4.61 v 0.22 l -0.19,0.13 -0.21,0.16 v 0 a 2.57,2.57 0 0 1 -1.2,0.63 2.37,2.37 0 0 1 -1.37,-0.14 4.93,4.93 0 0 1 -1.89,-1.55 16.33,16.33 0 0 1 -2.18,-4 39.58,39.58 0 0 1 -1.41,-4.24 38.79,38.79 0 0 1 -1,-4.36 c -0.46,-2.95 -0.65,-5.89 -0.84,-8.84 -0.19,-2.95 -0.3,-5.89 -0.39,-8.84 -0.36,-11.78 -0.38,-23.56 -0.41,-35.33 0,-5.89 0,-11.76 -0.2,-17.63 l -0.68,-17.64 c -0.22,-5.88 -0.42,-11.77 -0.5,-17.66 0,-2.95 0,-5.9 0.12,-8.86 L 230.4,225 a 8.17,8.17 0 0 1 0.14,-1.16 5,5 0 0 1 1.12,-2.17 9.1,9.1 0 0 1 3.94,-2.44 l 0.42,-0.15 0.19,0.41 c 0.53,1.12 1.05,2.25 1.54,3.4 a 23.61,23.61 0 0 1 1.27,3.55 15.35,15.35 0 0 0 1.36,3.34 c 0.57,1.09 1.09,2.27 1.6,3.36 0.26,0.55 0.55,1.08 0.85,1.63 a 4.47,4.47 0 0 1 0.61,2 13.67,13.67 0 0 1 -0.32,3.84 16.58,16.58 0 0 0 -0.39,1.76 10.11,10.11 0 0 0 -0.07,1.76 25.92,25.92 0 0 0 0.6,3.59 15.19,15.19 0 0 1 0.38,3.81 33.67,33.67 0 0 1 -0.55,3.73 13.47,13.47 0 0 0 -0.23,3.56 c 0.11,1.18 0.4,2.38 0.62,3.62 a 13.12,13.12 0 0 1 0.22,3.83 c -0.13,1.28 -0.42,2.49 -0.61,3.69 a 11.63,11.63 0 0 0 -0.12,3.56 c 0.15,1.19 0.43,2.39 0.63,3.64 a 12.3,12.3 0 0 1 0.06,3.84 c -0.17,1.26 -0.47,2.47 -0.64,3.66 -0.47,2.37 0.28,4.69 0.62,7.22 a 12.2,12.2 0 0 1 -0.1,3.84 c -0.21,1.25 -0.5,2.44 -0.65,3.63 -0.36,2.36 0.48,4.71 0.72,7.26 0.24,2.55 -0.69,5.09 -0.89,7.43 -0.2,2.34 0.64,4.72 0.77,7.3 0.13,2.58 -0.9,5 -1,7.38 -0.1,2.38 0.77,4.74 0.77,7.37 m -1,0 c 0,-2.34 -0.86,-4.77 -0.76,-7.38 0.1,-2.61 1.12,-4.94 1,-7.3 -0.12,-2.36 -1,-4.8 -0.77,-7.43 0.23,-2.63 1.16,-4.9 0.89,-7.26 -0.27,-2.36 -1.09,-4.85 -0.71,-7.47 0.38,-2.62 1.15,-4.86 0.75,-7.23 -0.15,-1.19 -0.43,-2.4 -0.62,-3.65 a 12,12 0 0 1 0,-3.84 c 0.18,-1.25 0.48,-2.46 0.64,-3.65 a 11.27,11.27 0 0 0 -0.06,-3.55 c -0.18,-1.2 -0.48,-2.41 -0.63,-3.67 a 12.7,12.7 0 0 1 0.13,-3.84 c 0.2,-1.24 0.48,-2.45 0.6,-3.63 a 12.11,12.11 0 0 0 -0.21,-3.55 c -0.21,-1.2 -0.51,-2.42 -0.63,-3.7 a 14.45,14.45 0 0 1 0.24,-3.82 33.36,33.36 0 0 0 0.53,-3.61 14.34,14.34 0 0 0 -0.36,-3.56 26.7,26.7 0 0 1 -0.62,-3.73 11,11 0 0 1 0.07,-1.95 17,17 0 0 1 0.41,-1.86 12.67,12.67 0 0 0 0.29,-3.53 3.41,3.41 0 0 0 -0.49,-1.56 c -0.29,-0.54 -0.59,-1.1 -0.86,-1.66 -0.54,-1.15 -1,-2.24 -1.6,-3.34 a 16.35,16.35 0 0 1 -1.43,-3.52 22.7,22.7 0 0 0 -1.23,-3.43 c -0.48,-1.13 -1,-2.25 -1.53,-3.36 l 0.62,0.26 a 8.11,8.11 0 0 0 -3.47,2.18 3.87,3.87 0 0 0 -0.86,1.72 7.3,7.3 0 0 0 -0.1,1 l -0.07,1.08 c -0.12,2.91 -0.06,5.85 0,8.79 0.11,5.87 0.33,11.75 0.58,17.63 l 0.76,17.64 c 0.28,5.89 0.16,11.8 0.17,17.68 0,11.77 -0.06,23.54 0.25,35.29 0.08,2.94 0.19,5.88 0.35,8.81 0.16,2.93 0.35,5.86 0.79,8.74 a 37.5,37.5 0 0 0 0.94,4.25 38.41,38.41 0 0 0 1.35,4.13 15.44,15.44 0 0 0 2,3.74 4,4 0 0 0 1.47,1.24 1.37,1.37 0 0 0 1.52,-0.29 v 0 0 l 0.19,-0.14 -0.2,0.36 c 0.14,-1.47 0.25,-3 0.24,-4.46 -0.01,-1.46 -0.42,-2.94 -0.57,-4.48 a 13,13 0 0 1 0.27,-4.66 23.25,23.25 0 0 0 0.7,-4.39"
       id="path10867" />
    <path
       class="g"
       d="m 376.18,141.22 c 0,0 6.24,9.59 5.31,15.61 l -0.12,-0.43 v 0 c -2.68,-8.88 -3.69,-9.24 -5,-8.89 -1.31,0.35 1.91,10.47 -3.3,13.44 0.85,-4.54 1.73,-13.91 -0.79,-15.26 -2.52,-1.35 -1.9,9.18 -7.1,14.44 -1.16,-7.07 3.5,-15.55 0.93,-16.31 -2.57,-0.76 -7.47,13.06 -13.17,16.86 0.29,-5.76 7.46,-16 6.19,-17.13 -1.27,-1.13 -7.37,5.81 -10.69,7.29 0.53,-4.54 5.85,-7.14 5.49,-8 -0.36,-0.86 -9.71,1.37 -13,3.32 a 2.8,2.8 0 0 1 0.45,-1.48 v 0 c 1.59,-2.61 7,-4.66 9.92,-4.7 4.39,-0.06 9.53,-1.94 11,-6.08 1,-2.86 2.56,-7 4.7,-12.5 1.14,-3 6.3,-6.83 8.39,-10.34 4,-6.66 5.71,-14.43 4.21,-19.72 -0.6,-2.09 -2.33,-3.85 -5.27,-5.38 -2.06,-1.09 -8,-5 -25.21,8 -11.78,8.91 -24.49,23.67 -32.43,31.57 -6.41,6.38 -25.13,21.1 -26.93,22 a 22.32,22.32 0 0 1 -4.22,1.6 l -0.36,0.1 a 32.5,32.5 0 0 1 1,15.39 c 0,0 -6,22.61 -8.13,31.68 -2.13,9.07 -2.22,14.59 -5.81,19.64 -3.59,5.05 -7.4,13.21 -28.21,13.21 -20.81,0 -24.6,-8.15 -28.21,-13.21 -3.61,-5.06 -3.67,-10.57 -5.81,-19.64 -2.14,-9.07 -8.13,-31.68 -8.13,-31.68 a 32.5,32.5 0 0 1 1,-15.39 l -0.36,-0.1 a 22.34,22.34 0 0 1 -4.22,-1.6 c -1.8,-0.89 -20.52,-15.61 -26.93,-22 -7.94,-7.9 -20.66,-22.66 -32.43,-31.57 -17.19,-13 -23.15,-9.07 -25.21,-8 -2.94,1.53 -4.67,3.29 -5.27,5.38 -1.51,5.3 0.24,13.06 4.21,19.72 2.09,3.51 7.25,7.36 8.39,10.34 2.13,5.55 3.67,9.64 4.7,12.5 1.48,4.14 6.62,6 11,6.08 3,0 8.34,2.09 9.92,4.7 v 0 a 2.8,2.8 0 0 1 0.45,1.48 c -3.28,-2 -12.63,-4.17 -13,-3.32 -0.37,0.85 5,3.44 5.49,8 -3.32,-1.48 -9.42,-8.46 -10.69,-7.29 -1.27,1.17 5.9,11.37 6.19,17.13 -5.7,-3.81 -10.61,-17.63 -13.17,-16.86 -2.56,0.77 2.09,9.24 0.93,16.31 -5.2,-5.26 -4.56,-15.81 -7.09,-14.44 -2.53,1.37 -1.65,10.72 -0.79,15.26 -5.21,-3 -2,-13.09 -3.3,-13.44 -1.3,-0.35 -2.29,0 -5,8.89 v 0 c 0,0.14 -0.08,0.28 -0.12,0.43 -0.93,-6 5.31,-15.61 5.31,-15.61 0,0 2.73,-6.3 -1,-16 a 62.94,62.94 0 0 0 -4.4,-8.15 c -5,-8.45 -10.26,-14.87 -7.49,-24.66 1.42,-5 4,-13.17 9.66,-16.11 17.44,-9 43.44,18.7 68.34,43.46 3.08,3.08 24.18,19.3 26.54,20.91 a 6.34,6.34 0 0 0 1.6,0.7 c 0.43,0.13 0.92,0.24 1.44,0.34 6.83,-10.16 20.14,-16.64 37.48,-16.64 17.34,0 30.65,6.48 37.48,16.64 0.52,-0.1 1,-0.21 1.44,-0.34 a 6.37,6.37 0 0 0 1.6,-0.7 c 2.36,-1.6 23.46,-17.83 26.54,-20.91 C 336,95 362,67.3 379.38,76.34 c 5.66,2.94 8.24,11.08 9.66,16.11 2.77,9.79 -2.47,16.21 -7.49,24.66 a 62.94,62.94 0 0 0 -4.4,8.15 c -3.71,9.66 -1,15.93 -1,16"
       id="path10869" />
    <path
       class="c"
       d="m 376.66,141.08 v 0 l 0.07,0.11 0.14,0.23 0.27,0.45 0.53,0.92 q 0.52,0.92 1,1.86 a 40.28,40.28 0 0 1 1.76,3.86 25,25 0 0 1 1.27,4.08 12.59,12.59 0 0 1 0.26,4.34 l -0.33,2.3 -0.63,-2.23 -0.12,-0.42 v -0.07 -0.07 0 0.15 c -0.61,-2 -1.25,-4 -2,-6 a 7.14,7.14 0 0 0 -1.48,-2.48 0.65,0.65 0 0 0 -0.43,-0.17 1.05,1.05 0 0 0 -0.28,0 h -0.06 c 0.06,-0.05 0.06,0 0.07,-0.06 a 1.76,1.76 0 0 0 -0.08,0.55 c 0,0.24 0,0.5 0,0.76 a 37.59,37.59 0 0 1 0,6.43 10.23,10.23 0 0 1 -0.9,3.21 5.9,5.9 0 0 1 -2.32,2.51 l -0.93,0.53 0.19,-1.06 a 53.29,53.29 0 0 0 0.85,-8 23.81,23.81 0 0 0 -0.19,-4 7.72,7.72 0 0 0 -0.48,-1.83 2.56,2.56 0 0 0 -0.45,-0.7 c -0.16,-0.18 -0.42,-0.3 -0.47,-0.27 -0.05,0.03 -0.23,0.14 -0.37,0.39 a 4.91,4.91 0 0 0 -0.37,0.85 c -0.21,0.61 -0.38,1.26 -0.55,1.92 -0.34,1.31 -0.67,2.64 -1.08,3.95 a 17.75,17.75 0 0 1 -3.94,7.3 l -0.7,0.71 -0.15,-1 a 26.49,26.49 0 0 1 0.78,-9.74 42.48,42.48 0 0 0 0.9,-4.66 3.54,3.54 0 0 0 0,-1 c -0.08,-0.29 -0.19,-0.43 -0.39,-0.46 a 1,1 0 0 0 -0.66,0.32 6,6 0 0 0 -0.76,0.81 c -1.87,2.49 -3.34,5.41 -5.06,8.13 a 47.7,47.7 0 0 1 -2.74,4 16.05,16.05 0 0 1 -3.51,3.51 l -0.84,0.58 0.06,-1 a 15.29,15.29 0 0 1 0.9,-4 c 0.44,-1.27 1,-2.49 1.51,-3.7 1.09,-2.42 2.35,-4.75 3.38,-7.13 a 7.19,7.19 0 0 0 0.55,-1.73 0.75,0.75 0 0 0 0,-0.22 c 0,0 0,0 0,0 a 1.69,1.69 0 0 0 -0.66,0.23 21.28,21.28 0 0 0 -3.07,2.3 c -1,0.85 -2,1.72 -3,2.56 a 17.38,17.38 0 0 1 -3.37,2.29 l -0.81,0.38 0.1,-0.9 a 9.41,9.41 0 0 1 2.91,-5.36 c 0.7,-0.72 1.48,-1.37 2.16,-2 a 2.88,2.88 0 0 0 0.41,-0.46 c 0.06,-0.07 0,-0.09 0,0.1 a 0.26,0.26 0 0 0 0.1,0.14 v 0 h -0.06 a 5.76,5.76 0 0 0 -1.32,0.05 40,40 0 0 0 -5.66,1.27 26.81,26.81 0 0 0 -5.36,2.09 l -0.75,0.43 v -0.85 a 3.34,3.34 0 0 1 0.52,-1.74 l -0.07,0.26 v 0 -0.15 l 0.07,-0.11 a 7.85,7.85 0 0 1 2.31,-2.22 16.21,16.21 0 0 1 2.74,-1.44 18.67,18.67 0 0 1 2.94,-0.95 12.46,12.46 0 0 1 1.54,-0.27 c 0.26,0 0.53,0 0.79,-0.06 h 0.73 a 15.22,15.22 0 0 0 5.61,-1.4 8.21,8.21 0 0 0 4,-3.84 c 1.43,-3.67 2.83,-7.49 4.24,-11.23 l 0.53,-1.41 a 7.52,7.52 0 0 1 0.68,-1.44 17.63,17.63 0 0 1 1.9,-2.45 c 1.36,-1.51 2.79,-2.91 4.1,-4.4 a 17.87,17.87 0 0 0 1.77,-2.33 c 0.51,-0.83 1,-1.71 1.43,-2.59 a 34.35,34.35 0 0 0 2.18,-5.51 c 1.1,-3.75 1.66,-7.85 0.59,-11.56 a 8.16,8.16 0 0 0 -3.68,-4.16 21.91,21.91 0 0 0 -2.58,-1.38 9.24,9.24 0 0 0 -2.76,-0.67 15.83,15.83 0 0 0 -5.74,0.79 c -0.92,0.34 -1.87,0.62 -2.76,1.05 l -1.36,0.6 -1.32,0.68 c -7,3.76 -13.24,8.89 -19.06,14.36 -5.82,5.47 -11.32,11.36 -16.84,17.19 -2.77,2.9 -5.5,5.86 -8.51,8.56 -3.01,2.7 -6.07,5.28 -9.17,7.83 -3.1,2.55 -6.24,5.06 -9.42,7.52 -1.6,1.23 -3.18,2.45 -4.84,3.62 a 8.74,8.74 0 0 1 -1.35,0.83 c -0.46,0.22 -0.93,0.43 -1.41,0.62 a 23,23 0 0 1 -2.94,1 v 0 l 0.37,-0.64 A 32.45,32.45 0 0 1 287,164.7 v 0.07 c -1.71,7 -3.45,13.95 -5.25,20.9 L 279,196.11 c -0.88,3.46 -1.48,7 -2.28,10.52 a 35.25,35.25 0 0 1 -1.56,5.27 20.24,20.24 0 0 1 -2.73,4.81 49.88,49.88 0 0 1 -3.31,4.32 21.11,21.11 0 0 1 -4.14,3.61 28.19,28.19 0 0 1 -10.16,3.79 66.86,66.86 0 0 1 -21.55,0 28.27,28.27 0 0 1 -10.2,-3.75 21.19,21.19 0 0 1 -4.18,-3.61 50.44,50.44 0 0 1 -3.33,-4.32 20.36,20.36 0 0 1 -2.76,-4.75 34.92,34.92 0 0 1 -1.58,-5.29 c -0.81,-3.55 -1.41,-7.05 -2.29,-10.51 l -2.68,-10.43 c -1.77,-7 -3.47,-13.94 -5.16,-20.92 v -0.08 a 32.2,32.2 0 0 1 1.35,-15.63 v 0 l 0.37,0.64 a 23.13,23.13 0 0 1 -2.94,-1 c -0.48,-0.19 -0.95,-0.4 -1.41,-0.62 a 8.31,8.31 0 0 1 -1.35,-0.82 c -1.66,-1.17 -3.24,-2.4 -4.84,-3.62 q -4.76,-3.7 -9.42,-7.52 c -3.1,-2.55 -6.19,-5.13 -9.18,-7.83 -2.99,-2.7 -5.74,-5.66 -8.51,-8.56 -5.52,-5.83 -11,-11.68 -16.85,-17.16 -5.85,-5.48 -12,-10.6 -19.06,-14.37 L 127.93,87.6 126.57,87 c -0.9,-0.43 -1.84,-0.71 -2.76,-1.06 a 16,16 0 0 0 -5.74,-0.8 9.29,9.29 0 0 0 -2.76,0.66 21.78,21.78 0 0 0 -2.58,1.37 8.19,8.19 0 0 0 -3.73,4.1 c -1.07,3.71 -0.52,7.81 0.58,11.57 a 34.46,34.46 0 0 0 2.18,5.51 c 0.45,0.88 0.92,1.76 1.43,2.6 a 17.69,17.69 0 0 0 1.77,2.33 c 1.3,1.49 2.74,2.89 4.1,4.4 a 17.77,17.77 0 0 1 1.9,2.45 7.67,7.67 0 0 1 0.69,1.44 l 0.53,1.41 c 1.42,3.74 2.82,7.57 4.24,11.24 a 8.2,8.2 0 0 0 4,3.84 15.21,15.21 0 0 0 5.61,1.4 h 0.73 c 0.26,0 0.54,0 0.8,0.06 a 12.27,12.27 0 0 1 1.54,0.27 18.57,18.57 0 0 1 2.94,0.95 16,16 0 0 1 2.75,1.44 7.85,7.85 0 0 1 2.31,2.22 l 0.07,0.11 v 0.15 0 l -0.07,-0.26 a 3.32,3.32 0 0 1 0.52,1.74 V 147 l -0.75,-0.43 a 26.83,26.83 0 0 0 -5.36,-2.09 40,40 0 0 0 -5.66,-1.27 5.77,5.77 0 0 0 -1.32,-0.05 h -0.06 v 0 a 0.26,0.26 0 0 0 0.1,-0.14 c 0,-0.18 0,-0.16 0,-0.1 a 3,3 0 0 0 0.41,0.46 c 0.68,0.65 1.46,1.3 2.16,2 a 9.41,9.41 0 0 1 2.91,5.36 l 0.1,0.9 -0.81,-0.38 a 17.41,17.41 0 0 1 -3.37,-2.29 c -1,-0.84 -2,-1.71 -3,-2.56 a 21.22,21.22 0 0 0 -3.07,-2.3 1.7,1.7 0 0 0 -0.66,-0.23 c 0,0 0,0 0,0 a 0.75,0.75 0 0 0 0,0.22 7.23,7.23 0 0 0 0.55,1.73 c 1,2.38 2.29,4.71 3.38,7.13 0.55,1.21 1.07,2.43 1.51,3.7 a 15.33,15.33 0 0 1 0.89,4 l 0.07,1 -0.84,-0.58 a 16.06,16.06 0 0 1 -3.51,-3.51 47.7,47.7 0 0 1 -2.74,-4 c -1.72,-2.72 -3.19,-5.64 -5.06,-8.13 a 5.94,5.94 0 0 0 -0.76,-0.81 1,1 0 0 0 -0.66,-0.32 c -0.2,0 -0.3,0.17 -0.39,0.46 a 3.5,3.5 0 0 0 0,1 42.48,42.48 0 0 0 0.91,4.66 26.49,26.49 0 0 1 0.78,9.74 l -0.15,1 -0.7,-0.71 a 17.75,17.75 0 0 1 -3.94,-7.3 c -0.41,-1.31 -0.74,-2.64 -1.07,-3.95 -0.17,-0.65 -0.34,-1.3 -0.55,-1.92 a 5.07,5.07 0 0 0 -0.37,-0.85 c -0.14,-0.26 -0.32,-0.4 -0.37,-0.39 -0.05,0.01 -0.31,0.09 -0.47,0.27 a 2.58,2.58 0 0 0 -0.45,0.7 7.72,7.72 0 0 0 -0.48,1.83 23.71,23.71 0 0 0 -0.19,4 53.56,53.56 0 0 0 0.85,8 l 0.19,1.06 -0.93,-0.53 a 5.89,5.89 0 0 1 -2.32,-2.51 10.2,10.2 0 0 1 -0.9,-3.21 37.59,37.59 0 0 1 0,-6.43 c 0,-0.26 0,-0.52 0,-0.76 a 1.74,1.74 0 0 0 -0.08,-0.55 c 0,0 0,0 0.07,0.06 h -0.06 a 1,1 0 0 0 -0.28,0 0.65,0.65 0 0 0 -0.44,0.17 7.12,7.12 0 0 0 -1.48,2.48 c -0.79,1.93 -1.43,3.94 -2,6 v -0.15 0 0.07 0.07 l -0.12,0.42 -0.65,2.24 -0.33,-2.29 a 12.61,12.61 0 0 1 0.26,-4.34 24.91,24.91 0 0 1 1.27,-4.08 40.52,40.52 0 0 1 1.76,-3.86 c 0.65,-1.26 1.33,-2.48 2.1,-3.68 l -0.08,0.27 a 1.14,1.14 0 0 1 0.07,-0.27 v -0.08 l 0.06,-0.17 0.11,-0.34 c 0.07,-0.23 0.14,-0.46 0.19,-0.7 0.12,-0.47 0.21,-1 0.28,-1.44 a 19.2,19.2 0 0 0 0.23,-2.94 25,25 0 0 0 -0.69,-5.87 c -0.1,-0.49 -0.24,-1 -0.38,-1.44 -0.14,-0.44 -0.27,-1 -0.45,-1.42 a 20.26,20.26 0 0 0 -1.11,-2.74 c -0.88,-1.78 -1.9,-3.51 -2.93,-5.24 -2,-3.48 -4.28,-6.81 -6.17,-10.42 a 27.64,27.64 0 0 1 -2.27,-5.7 18.31,18.31 0 0 1 -0.54,-6.15 28.28,28.28 0 0 1 1.31,-6 49.41,49.41 0 0 1 2.12,-5.72 24.63,24.63 0 0 1 3.17,-5.28 12.52,12.52 0 0 1 4.91,-3.8 15.9,15.9 0 0 1 6,-1.4 23.1,23.1 0 0 1 6.12,0.71 42.66,42.66 0 0 1 11.14,4.94 129,129 0 0 1 19.16,14.82 c 6,5.41 11.73,11.08 17.44,16.77 2.86,2.83 5.69,5.73 8.56,8.51 2.87,2.78 6.17,5.13 9.32,7.63 3.15,2.5 6.34,5 9.53,7.41 l 4.8,3.65 c 0.8,0.6 1.63,1.23 2.4,1.76 a 6,6 0 0 0 1.27,0.55 c 0.46,0.13 0.94,0.22 1.41,0.34 h 0.09 l -0.51,0.21 a 33.59,33.59 0 0 1 7.35,-7.91 40.36,40.36 0 0 1 9.38,-5.37 59.62,59.62 0 0 1 42.26,0 40.39,40.39 0 0 1 9.39,5.36 33.6,33.6 0 0 1 7.36,7.9 v 0.07 l -0.51,-0.21 1.42,-0.33 a 6.38,6.38 0 0 0 1.29,-0.53 c 0.77,-0.51 1.6,-1.15 2.4,-1.74 l 4.81,-3.65 q 4.79,-3.68 9.54,-7.42 c 3.15,-2.5 6.34,-5 9.33,-7.62 2.99,-2.62 5.7,-5.68 8.56,-8.51 5.71,-5.69 11.45,-11.36 17.44,-16.78 a 129.42,129.42 0 0 1 19.17,-14.84 42.7,42.7 0 0 1 11.14,-4.95 23.23,23.23 0 0 1 6.12,-0.72 16,16 0 0 1 6,1.39 12.57,12.57 0 0 1 4.92,3.79 24.67,24.67 0 0 1 3.18,5.27 49.4,49.4 0 0 1 2.12,5.73 28.55,28.55 0 0 1 1.31,6 18.25,18.25 0 0 1 -0.54,6.16 27.61,27.61 0 0 1 -2.27,5.71 c -1.89,3.62 -4.15,7 -6.17,10.43 -1,1.73 -2,3.46 -2.93,5.24 a 20,20 0 0 0 -1.11,2.74 c -0.18,0.46 -0.32,0.94 -0.45,1.42 -0.13,0.48 -0.28,1 -0.38,1.44 a 21.19,21.19 0 0 0 0.25,11.67 m -1,0.28 a 18.15,18.15 0 0 1 -1,-6.07 26,26 0 0 1 0.71,-6.11 c 0.1,-0.5 0.25,-1 0.39,-1.49 0.14,-0.49 0.28,-1 0.46,-1.46 a 20.92,20.92 0 0 1 1.16,-2.86 c 0.91,-1.83 1.94,-3.57 3,-5.31 2,-3.49 4.3,-6.85 6.14,-10.38 a 26.67,26.67 0 0 0 2.19,-5.5 17.21,17.21 0 0 0 0.51,-5.83 27.45,27.45 0 0 0 -1.04,-5.91 48.26,48.26 0 0 0 -2.1,-5.58 23.63,23.63 0 0 0 -3,-5.05 11.53,11.53 0 0 0 -4.55,-3.51 15,15 0 0 0 -5.67,-1.3 22.18,22.18 0 0 0 -5.84,0.69 41.75,41.75 0 0 0 -10.87,4.84 128.44,128.44 0 0 0 -19,14.72 c -6,5.39 -11.7,11.06 -17.41,16.74 -2.87,2.84 -5.67,5.7 -8.59,8.54 -2.92,2.84 -6.23,5.16 -9.39,7.67 -3.16,2.51 -6.35,5 -9.55,7.42 l -4.82,3.66 c -0.82,0.61 -1.58,1.21 -2.49,1.81 a 7.28,7.28 0 0 1 -1.5,0.63 l -1.52,0.36 -0.3,0.07 -0.21,-0.28 v -0.07 a 36,36 0 0 0 -16.48,-12.44 60.33,60.33 0 0 0 -41.15,0 A 36,36 0 0 0 207,142 l -0.2,0.29 -0.31,-0.07 h -0.09 c -0.51,-0.12 -1,-0.23 -1.52,-0.37 a 6.94,6.94 0 0 1 -1.49,-0.65 c -0.89,-0.61 -1.66,-1.2 -2.48,-1.81 l -4.81,-3.66 q -4.79,-3.68 -9.54,-7.42 c -3.16,-2.51 -6.33,-5 -9.38,-7.68 -3.05,-2.68 -5.72,-5.69 -8.58,-8.53 -5.71,-5.68 -11.43,-11.34 -17.4,-16.73 a 128.18,128.18 0 0 0 -19,-14.71 41.74,41.74 0 0 0 -10.87,-4.82 22.13,22.13 0 0 0 -5.84,-0.68 14.9,14.9 0 0 0 -5.66,1.31 11.52,11.52 0 0 0 -4.54,3.52 23.65,23.65 0 0 0 -3,5.06 48.45,48.45 0 0 0 -2.07,5.6 27.15,27.15 0 0 0 -1.26,5.78 17.29,17.29 0 0 0 0.51,5.83 26.71,26.71 0 0 0 2.19,5.5 c 1.84,3.53 4.11,6.88 6.14,10.37 1,1.74 2.06,3.48 3,5.31 a 21.12,21.12 0 0 1 1.16,2.85 c 0.18,0.48 0.32,1 0.46,1.46 0.14,0.46 0.29,1 0.39,1.49 a 26,26 0 0 1 0.71,6.1 20.29,20.29 0 0 1 -0.24,3.08 15.44,15.44 0 0 1 -0.3,1.53 c -0.06,0.25 -0.13,0.5 -0.2,0.75 l -0.12,0.38 -0.07,0.19 v 0.09 a 0.17,0.17 0 0 0 0,-0.09 l -0.08,0.27 c -0.73,1.15 -1.41,2.37 -2,3.6 a 39.25,39.25 0 0 0 -1.72,3.77 23.85,23.85 0 0 0 -1.22,3.92 11.6,11.6 0 0 0 -0.25,4 l -1,-0.06 0.13,-0.44 v 0.14 0 -0.07 -0.07 c 0.62,-2 1.26,-4.07 2.08,-6.06 a 7.64,7.64 0 0 1 1.8,-2.89 1.65,1.65 0 0 1 1,-0.37 2,2 0 0 1 0.51,0.06 1,1 0 0 1 0.31,0.11 0.84,0.84 0 0 1 0.34,0.34 2.32,2.32 0 0 1 0.21,1 c 0,0.29 0,0.56 0,0.83 a 36.9,36.9 0 0 0 0,6.27 c 0.23,2 1,4 2.73,5 l -0.74,0.53 a 54.41,54.41 0 0 1 -0.86,-8.17 24.72,24.72 0 0 1 0.2,-4.15 8.67,8.67 0 0 1 0.55,-2.09 3.54,3.54 0 0 1 0.65,-1 1.61,1.61 0 0 1 1.31,-0.56 1.58,1.58 0 0 1 1.12,0.88 5.9,5.9 0 0 1 0.44,1 c 0.23,0.67 0.4,1.33 0.58,2 0.34,1.32 0.66,2.63 1.06,3.9 a 16.81,16.81 0 0 0 3.69,6.9 l -0.85,0.27 a 25.64,25.64 0 0 0 -0.77,-9.37 42.49,42.49 0 0 1 -0.93,-4.8 4.4,4.4 0 0 1 0.07,-1.36 1.52,1.52 0 0 1 1.16,-1.2 1.86,1.86 0 0 1 1.5,0.54 6.91,6.91 0 0 1 0.89,0.95 39.26,39.26 0 0 1 2.66,4.1 c 0.82,1.39 1.63,2.77 2.47,4.13 a 46.24,46.24 0 0 0 2.68,3.95 15.11,15.11 0 0 0 3.28,3.29 l -0.78,0.44 a 23.28,23.28 0 0 0 -2.31,-7.32 c -1.08,-2.39 -2.33,-4.69 -3.39,-7.16 a 7.8,7.8 0 0 1 -0.62,-2 1.45,1.45 0 0 1 0.11,-0.75 1,1 0 0 1 0.81,-0.52 2.41,2.41 0 0 1 1.21,0.34 21.82,21.82 0 0 1 3.25,2.42 c 1,0.85 2,1.72 3,2.55 a 16.55,16.55 0 0 0 3.15,2.15 l -0.7,0.51 a 8.43,8.43 0 0 0 -2.63,-4.78 c -0.67,-0.69 -1.4,-1.3 -2.14,-2 a 3.71,3.71 0 0 1 -0.56,-0.65 0.87,0.87 0 0 1 -0.13,-0.79 0.8,0.8 0 0 1 0.21,-0.28 0.83,0.83 0 0 1 0.19,-0.11 1.29,1.29 0 0 1 0.29,-0.09 6.32,6.32 0 0 1 1.62,0 40.9,40.9 0 0 1 5.82,1.3 27.61,27.61 0 0 1 5.59,2.19 l -0.76,0.43 a 2.32,2.32 0 0 0 -0.37,-1.21 l -0.07,-0.12 v -0.14 0 l 0.07,0.26 a 10.21,10.21 0 0 0 -4.58,-3.26 14.57,14.57 0 0 0 -5.68,-1.22 16.2,16.2 0 0 1 -6,-1.5 9.2,9.2 0 0 1 -4.49,-4.33 c -1.49,-3.81 -2.84,-7.52 -4.27,-11.29 a 16.66,16.66 0 0 0 -1.14,-2.68 16.9,16.9 0 0 0 -1.79,-2.3 c -1.32,-1.47 -2.77,-2.88 -4.11,-4.41 a 18.72,18.72 0 0 1 -1.87,-2.46 c -0.53,-0.88 -1,-1.77 -1.47,-2.68 a 35.44,35.44 0 0 1 -2.24,-5.67 c -1.12,-3.89 -1.74,-8.09 -0.58,-12.16 a 9.16,9.16 0 0 1 4.11,-4.69 22.7,22.7 0 0 1 2.73,-1.45 10.33,10.33 0 0 1 3.07,-0.74 16.94,16.94 0 0 1 6.12,0.84 c 1,0.35 1.94,0.65 2.86,1.09 l 1.4,0.62 1.35,0.7 c 7.15,3.84 13.43,9 19.29,14.53 5.86,5.53 11.37,11.38 16.89,17.2 2.77,2.9 5.5,5.85 8.46,8.51 2.96,2.66 6,5.25 9.14,7.8 3.14,2.55 6.23,5 9.4,7.5 1.59,1.22 3.18,2.45 4.8,3.59 a 7.13,7.13 0 0 0 1.22,0.74 q 0.66,0.32 1.35,0.59 a 22.12,22.12 0 0 0 2.78,0.9 l 0.51,0.13 -0.14,0.51 v 0 a 32,32 0 0 0 -1.18,7.5 36.6,36.6 0 0 0 0.56,7.55 v -0.08 c 1.89,6.94 3.76,13.89 5.56,20.85 l 2.49,10.41 c 0.84,3.52 1.45,7.11 2.11,10.59 0.66,3.48 1.63,6.82 3.7,9.68 a 49.27,49.27 0 0 0 3.06,4.36 20.05,20.05 0 0 0 3.8,3.59 26,26 0 0 0 9.75,4 57.59,57.59 0 0 0 21.34,0 26.13,26.13 0 0 0 9.8,-4 20.24,20.24 0 0 0 3.84,-3.59 49.06,49.06 0 0 0 3.08,-4.36 23.88,23.88 0 0 0 3.76,-9.72 c 0.68,-3.49 1.28,-7.07 2.12,-10.59 L 280,185.27 c 1.77,-7 3.61,-13.92 5.47,-20.87 v 0.07 a 36,36 0 0 0 0.51,-7.6 31.49,31.49 0 0 0 -1.26,-7.52 l -0.15,-0.51 0.52,-0.13 v 0 a 21.9,21.9 0 0 0 2.78,-0.91 c 0.46,-0.18 0.9,-0.38 1.35,-0.59 a 7.67,7.67 0 0 0 1.21,-0.74 c 1.62,-1.14 3.21,-2.37 4.8,-3.59 q 4.75,-3.69 9.39,-7.5 c 3.09,-2.55 6.17,-5.12 9.13,-7.8 2.96,-2.68 5.69,-5.61 8.46,-8.51 5.52,-5.82 11,-11.69 16.88,-17.2 5.88,-5.51 12.13,-10.68 19.28,-14.52 l 1.35,-0.7 1.39,-0.62 c 0.92,-0.44 1.9,-0.74 2.86,-1.09 a 16.8,16.8 0 0 1 6.12,-0.83 10.24,10.24 0 0 1 3.07,0.74 22.9,22.9 0 0 1 2.84,1.43 9.13,9.13 0 0 1 4.1,4.7 c 1.16,4.07 0.54,8.27 -0.59,12.16 a 35.3,35.3 0 0 1 -2.24,5.67 c -0.46,0.91 -0.94,1.8 -1.47,2.67 a 18.82,18.82 0 0 1 -1.87,2.46 c -1.34,1.53 -2.79,2.93 -4.11,4.41 a 11.22,11.22 0 0 0 -2.93,5 c -1.43,3.77 -2.78,7.48 -4.27,11.29 a 9.2,9.2 0 0 1 -4.49,4.33 16.19,16.19 0 0 1 -6,1.5 14.56,14.56 0 0 0 -5.68,1.22 10.22,10.22 0 0 0 -4.58,3.26 l 0.07,-0.26 v 0 0.14 l -0.07,0.12 a 2.32,2.32 0 0 0 -0.37,1.21 l -0.76,-0.43 a 27.63,27.63 0 0 1 5.59,-2.19 40.91,40.91 0 0 1 5.82,-1.3 6.32,6.32 0 0 1 1.62,0 1.29,1.29 0 0 1 0.3,0.09 0.88,0.88 0 0 1 0.19,0.11 0.79,0.79 0 0 1 0.21,0.28 0.87,0.87 0 0 1 -0.13,0.79 3.62,3.62 0 0 1 -0.56,0.65 c -0.74,0.7 -1.48,1.31 -2.14,2 a 8.45,8.45 0 0 0 -2.63,4.78 l -0.7,-0.51 a 16.62,16.62 0 0 0 3.14,-2.15 c 1,-0.83 2,-1.69 3,-2.55 a 21.71,21.71 0 0 1 3.25,-2.42 2.41,2.41 0 0 1 1.21,-0.34 1,1 0 0 1 0.81,0.52 1.46,1.46 0 0 1 0.11,0.75 7.84,7.84 0 0 1 -0.62,2 c -1.07,2.46 -2.32,4.77 -3.39,7.16 a 23.26,23.26 0 0 0 -2.31,7.32 l -0.78,-0.44 A 15.13,15.13 0 0 0 356,157 a 46.71,46.71 0 0 0 2.68,-3.95 c 0.84,-1.36 1.65,-2.75 2.47,-4.13 a 39.59,39.59 0 0 1 2.66,-4.1 6.92,6.92 0 0 1 0.89,-0.95 1.86,1.86 0 0 1 1.5,-0.54 1.52,1.52 0 0 1 1.16,1.2 4.4,4.4 0 0 1 0.07,1.36 42.48,42.48 0 0 1 -0.93,4.8 25.62,25.62 0 0 0 -0.77,9.37 l -0.85,-0.27 a 16.8,16.8 0 0 0 3.7,-6.9 c 0.4,-1.28 0.72,-2.58 1.06,-3.9 0.17,-0.66 0.35,-1.32 0.58,-2 a 5.89,5.89 0 0 1 0.44,-1 1.58,1.58 0 0 1 1.12,-0.88 1.61,1.61 0 0 1 1.31,0.56 3.54,3.54 0 0 1 0.65,1 8.67,8.67 0 0 1 0.55,2.09 24.72,24.72 0 0 1 0.2,4.15 54.28,54.28 0 0 1 -0.86,8.17 l -0.74,-0.53 c 1.71,-0.94 2.5,-3 2.73,-5 a 36.9,36.9 0 0 0 0,-6.27 c 0,-0.27 0,-0.54 0,-0.83 a 2.33,2.33 0 0 1 0.21,-1 0.83,0.83 0 0 1 0.34,-0.34 1,1 0 0 1 0.31,-0.11 2,2 0 0 1 0.51,-0.06 1.65,1.65 0 0 1 1,0.37 7.66,7.66 0 0 1 1.8,2.89 c 0.82,2 1.46,4 2.08,6.06 v 0.07 0.07 0 -0.14 l 0.13,0.44 -1,0.06 a 11.65,11.65 0 0 0 -0.25,-4 24,24 0 0 0 -1.22,-3.92 39.26,39.26 0 0 0 -1.72,-3.77 q -0.47,-0.92 -1,-1.83 z"
       id="path10871" />
    <path
       class="h"
       d="m 265.05,164.32 c -0.59,2.37 -0.4,10.4 -2.08,16.74 -1.68,6.34 -8.81,17.64 -10.33,22 -1.52,4.36 0.81,6.23 -0.17,9.62 -0.05,0.18 -0.11,0.38 -0.18,0.59 -0.07,0.21 -0.15,0.42 -0.22,0.63 -0.59,1.52 -1.44,3.33 -2.23,5.28 -0.35,0.85 -0.68,1.73 -1,2.61 -0.13,0.39 -0.25,0.78 -0.35,1.17 v 0 c -0.06,0.2 -0.11,0.42 -0.17,0.63 -0.06,0.21 -0.14,0.56 -0.19,0.85 0,0 0,0.06 0,0.08 -0.06,0.29 -0.11,0.6 -0.15,0.89 h -7.86 c 0,-0.29 -0.1,-0.6 -0.15,-0.89 0,0 0,-0.06 0,-0.08 -0.06,-0.29 -0.13,-0.57 -0.2,-0.85 -0.07,-0.28 -0.11,-0.43 -0.17,-0.63 v 0 c -0.1,-0.39 -0.22,-0.78 -0.35,-1.17 -0.28,-0.88 -0.61,-1.76 -1,-2.61 -0.79,-2 -1.64,-3.76 -2.23,-5.28 -0.07,-0.21 -0.15,-0.42 -0.22,-0.63 -0.07,-0.21 -0.12,-0.4 -0.18,-0.59 -1,-3.39 1.35,-5.24 -0.17,-9.62 -1.52,-4.38 -8.66,-15.67 -10.33,-22 -1.67,-6.33 -1.49,-14.37 -2.08,-16.74 -0.59,-2.37 -3.65,-6.81 -1.55,-11.85 0,0 3.8,-4.61 6.91,-6.44 3.11,-1.83 10.27,-2.84 15.61,-2.84 5.34,0 12.52,1 15.61,2.84 3.09,1.84 6.91,6.44 6.91,6.44 2.1,5 -0.95,9.46 -1.55,11.85"
       id="path10873" />
    <path
       class="c"
       d="m 265.48,164.42 a 30.42,30.42 0 0 0 -0.41,3.77 l -0.29,3.87 a 60.71,60.71 0 0 1 -1.08,7.73 33.87,33.87 0 0 1 -2.66,7.36 c -1.1,2.35 -2.3,4.65 -3.51,6.93 -1.21,2.28 -2.44,4.55 -3.56,6.87 a 16.85,16.85 0 0 0 -1.33,3.53 9.15,9.15 0 0 0 0,3.71 10.21,10.21 0 0 1 0.22,4 20.38,20.38 0 0 1 -1.37,3.67 L 250,219.4 a 32.83,32.83 0 0 0 -1.16,3.65 v -0.05 0 0.09 c -0.12,0.49 -0.2,1 -0.27,1.46 v 0.08 l -0.08,0.88 v 0 0.43 h -8.79 v -0.43 c 0,-0.29 0,-0.59 -0.08,-0.88 v -0.09 c -0.07,-0.49 -0.15,-1 -0.27,-1.46 v -0.08 0 0 l -0.28,-1.11 -0.38,-1.09 c -0.27,-0.72 -0.48,-1.46 -0.81,-2.16 L 236,214.42 a 11.69,11.69 0 0 1 -0.78,-2.24 7.26,7.26 0 0 1 -0.07,-2.43 17.29,17.29 0 0 0 0.39,-4.49 13.79,13.79 0 0 0 -1.43,-4.22 c -0.66,-1.38 -1.38,-2.75 -2.1,-4.12 -1.44,-2.73 -2.92,-5.47 -4.29,-8.26 a 39.36,39.36 0 0 1 -3.35,-8.77 66.65,66.65 0 0 1 -1.2,-9.28 c -0.12,-1.55 -0.2,-3.1 -0.35,-4.62 a 8.28,8.28 0 0 0 -0.41,-2.15 c -0.25,-0.7 -0.55,-1.41 -0.84,-2.14 a 16.86,16.86 0 0 1 -1.2,-4.62 10.29,10.29 0 0 1 0.74,-4.79 v 0 -0.05 l 0.06,-0.07 a 41.94,41.94 0 0 1 4.37,-4.76 17.08,17.08 0 0 1 2.63,-2 15.36,15.36 0 0 1 3.09,-1.29 38.92,38.92 0 0 1 6.36,-1.3 46.8,46.8 0 0 1 12.9,0 38.79,38.79 0 0 1 6.36,1.29 15.43,15.43 0 0 1 3.09,1.29 16.83,16.83 0 0 1 2.64,2 41.75,41.75 0 0 1 4.37,4.76 v 0 l 0.05,0.07 v 0.06 a 10.43,10.43 0 0 1 0.73,3.14 11,11 0 0 1 -0.27,3.19 19.85,19.85 0 0 1 -1,3 c -0.38,1 -0.82,1.91 -1.08,2.82 m -0.87,-0.22 c 0.29,-1.07 0.73,-2 1.09,-2.94 a 18.84,18.84 0 0 0 0.89,-2.86 9.47,9.47 0 0 0 -0.46,-5.74 l 0.08,0.13 v 0 a 46.81,46.81 0 0 0 -4.48,-4.39 15.85,15.85 0 0 0 -2.47,-1.77 14.09,14.09 0 0 0 -2.81,-1.07 51.26,51.26 0 0 0 -24.75,0 13.94,13.94 0 0 0 -2.81,1.07 16.11,16.11 0 0 0 -2.47,1.78 46.92,46.92 0 0 0 -4.48,4.39 l 0.07,-0.12 v 0 a 9.25,9.25 0 0 0 -0.63,4.31 15.83,15.83 0 0 0 1.16,4.33 c 0.28,0.71 0.59,1.42 0.87,2.18 a 9.22,9.22 0 0 1 0.48,2.39 c 0.15,1.57 0.23,3.11 0.34,4.65 a 65.54,65.54 0 0 0 1.16,9.13 38.35,38.35 0 0 0 3.25,8.54 c 1.35,2.77 2.81,5.49 4.25,8.24 0.72,1.37 1.44,2.75 2.11,4.16 a 13.43,13.43 0 0 1 1.47,4.55 9.65,9.65 0 0 1 -0.1,2.43 c -0.13,0.79 -0.33,1.54 -0.45,2.28 a 6.45,6.45 0 0 0 0,2.19 11.29,11.29 0 0 0 0.65,2.17 c 1.15,2.87 2.4,5.68 3.41,8.67 v 0.08 0 -0.09 l 0.45,1.49 v 0.08 0.08 -0.08 l 0.23,0.9 -0.5,-0.43 H 248 l -0.49,0.43 v 0 l 0.23,-0.9 v 0.08 -0.08 -0.08 l 0.45,-1.49 v 0.09 0 -0.08 c 0.84,-2.5 1.87,-4.86 2.87,-7.24 a 18.35,18.35 0 0 0 1.27,-3.6 9.69,9.69 0 0 0 -0.31,-3.73 9.85,9.85 0 0 1 -0.12,-4 15.62,15.62 0 0 1 1.35,-3.72 c 1.12,-2.35 2.35,-4.62 3.55,-6.91 1.2,-2.29 2.39,-4.57 3.47,-6.9 a 33.06,33.06 0 0 0 2.58,-7.19 59.78,59.78 0 0 0 1,-7.62 l 0.27,-3.86 a 30.5,30.5 0 0 1 0.42,-3.93"
       id="path10875" />
    <g
       class="i"
       clip-path="url(#a)"
       id="g10879">
      <rect
         class="j"
         x="98.830002"
         y="76.57"
         width="290.48999"
         height="278.82001"
         id="rect10877"
         style="fill:url(#b)" />
    </g>
    <path
       class="c"
       d="m 239.58,355.46 a 0.72,0.72 0 0 1 -0.07,-0.17 0.32,0.32 0 0 1 0,-0.14 0.24,0.24 0 0 1 0.14,-0.17 l -0.1,0.12 a 26.22,26.22 0 0 0 0.48,-4.15 19.89,19.89 0 0 0 -1.17,-4 9.66,9.66 0 0 1 -0.44,-2.15 5.16,5.16 0 0 1 0.3,-2.23 c 0.49,-1.39 1.26,-2.6 1.68,-3.88 a 5.62,5.62 0 0 0 0.34,-1.92 6.47,6.47 0 0 0 -0.43,-1.93 20.65,20.65 0 0 1 -1.31,-4.12 5.29,5.29 0 0 1 0.21,-2.29 16.66,16.66 0 0 1 0.83,-2 9,9 0 0 0 1.17,-3.79 12.79,12.79 0 0 0 -1.17,-3.87 10.6,10.6 0 0 1 -0.62,-2.13 5.38,5.38 0 0 1 0.15,-2.31 c 0.41,-1.46 1.16,-2.69 1.61,-4 a 5.12,5.12 0 0 0 0.37,-1.89 6.26,6.26 0 0 0 -0.4,-1.9 27.66,27.66 0 0 1 -1.43,-4.07 5.31,5.31 0 0 1 0.09,-2.31 13,13 0 0 1 0.76,-2.07 10.06,10.06 0 0 0 1.19,-3.81 11.18,11.18 0 0 0 -1.17,-3.84 12,12 0 0 1 -0.69,-2.1 5.2,5.2 0 0 1 0,-2.32 36.27,36.27 0 0 1 1.52,-4 5.75,5.75 0 0 0 0.39,-1.89 5.9,5.9 0 0 0 -0.38,-1.9 39.41,39.41 0 0 1 -1.51,-4 5.28,5.28 0 0 1 0,-2.32 11.66,11.66 0 0 1 0.68,-2.11 11.57,11.57 0 0 0 1.2,-3.82 9.84,9.84 0 0 0 -1.18,-3.8 13.51,13.51 0 0 1 -0.78,-2.06 5.36,5.36 0 0 1 -0.11,-2.32 24.54,24.54 0 0 1 1.4,-4.09 6,6 0 0 0 0.41,-1.89 5.5,5.5 0 0 0 -0.36,-1.89 c -0.44,-1.27 -1.18,-2.48 -1.66,-3.91 a 5.46,5.46 0 0 1 -0.22,-2.32 5.38,5.38 0 0 1 0.82,-2.17 6.41,6.41 0 0 0 0.81,-1.78 7,7 0 0 0 0.17,-1.93 1.9,1.9 0 0 0 -0.85,-1.43 L 238.61,235 c -1.1,-0.95 -2.06,-2 -3.1,-2.9 -1.04,-0.9 -2.15,-1.8 -3.16,-2.91 l -1.12,-1.19 1.63,0.38 a 43,43 0 0 0 5.44,0.9 l 1.39,0.13 c 0.24,0 0,0 0.11,0 a 1.37,1.37 0 0 0 0.1,-0.45 10.77,10.77 0 0 0 -0.28,-2.64 l -0.05,-0.28 0.22,-0.19 a 2.88,2.88 0 0 0 1,-1.59 5.18,5.18 0 0 0 0,-1 v -0.51 l -0.1,-0.54 a 43,43 0 0 0 -1.17,-4.27 c -0.45,-1.43 -0.91,-2.85 -1.29,-4.32 a 17.78,17.78 0 0 1 -0.46,-2.26 5.71,5.71 0 0 1 0.13,-2.43 8.42,8.42 0 0 1 1.11,-2.09 3.81,3.81 0 0 0 0.69,-1.85 9.23,9.23 0 0 0 -1.15,-4 c -1.22,-2.71 -2.59,-5.37 -3.92,-8 -1.33,-2.63 -2.68,-5.35 -3.94,-8.08 a 27.7,27.7 0 0 1 -1.65,-4.28 29.26,29.26 0 0 1 -0.39,-4.55 c -0.05,-1.5 -0.08,-3 -0.24,-4.43 a 9.42,9.42 0 0 0 -0.45,-2.08 c -0.25,-0.7 -0.5,-1.42 -0.73,-2.14 -0.46,-1.43 -0.89,-2.88 -1.21,-4.37 a 17.6,17.6 0 0 1 -0.36,-2.28 7,7 0 0 1 0.23,-2.37 c 0.38,-1.47 0.91,-2.89 0.49,-4.12 a 4.4,4.4 0 0 0 -0.47,-0.9 c -0.22,-0.36 -0.37,-0.72 -0.53,-1 a 6.07,6.07 0 0 0 -1.28,-1.63 14.2,14.2 0 0 0 -3.44,-2.55 3.94,3.94 0 0 0 -2,-0.2 20.11,20.11 0 0 0 -2.17,0.31 24.91,24.91 0 0 1 -4.52,0.61 39.34,39.34 0 0 1 -4.53,-0.23 26.19,26.19 0 0 1 -8.64,-2.7 8.7,8.7 0 0 1 -2,-1.14 q -0.92,-0.66 -1.8,-1.35 -1.78,-1.38 -3.52,-2.79 -3.49,-2.82 -6.92,-5.72 -3.43,-2.9 -6.8,-5.86 c -2.23,-2 -4.5,-4 -6.53,-6.17 C 162.89,114.43 155,105.46 146,97.55 A 87.11,87.11 0 0 0 131.59,87 a 35.82,35.82 0 0 0 -8.16,-3.5 14,14 0 0 0 -8.66,0.09 c -2.65,1.18 -5.37,2.72 -7,5.19 a 9.83,9.83 0 0 0 -1.37,4.12 20.87,20.87 0 0 0 -0.11,4.42 31.53,31.53 0 0 0 2,8.65 36.12,36.12 0 0 0 1.81,4.07 21,21 0 0 0 2.33,3.76 c 1.84,2.33 4.1,4.31 6,6.67 a 6.64,6.64 0 0 1 1.15,2 l 0.79,2.1 1.57,4.2 1.57,4.2 a 14.34,14.34 0 0 0 1.88,4 12.93,12.93 0 0 0 7.41,4.45 l 0.39,0.09 -0.28,0.28 a 2.45,2.45 0 0 0 -0.5,1 l -0.1,0.32 -0.25,-0.17 a 5.76,5.76 0 0 0 -2.33,-1.09 2.33,2.33 0 0 0 -2.21,0.85 2.61,2.61 0 0 0 -0.35,2.38 15.12,15.12 0 0 0 0.92,2.49 l -0.39,0.2 c -0.63,-1 -1.27,-2.09 -2,-3.08 a 6.63,6.63 0 0 0 -2.58,-2.41 2.8,2.8 0 0 0 -3.2,0.84 5,5 0 0 0 -0.57,3.51 v 0.41 l -0.14,-0.38 a 6.28,6.28 0 0 0 -1,-1.91 2.47,2.47 0 0 0 -1.86,-0.9 2.79,2.79 0 0 0 -1.94,0.68 4.57,4.57 0 0 0 -1.21,1.73 l -0.08,0.18 -0.16,-0.12 a 2.68,2.68 0 0 0 -1.28,-0.48 h -0.25 l 0.12,-0.22 1,-1.88 c 0.36,-0.62 0.69,-1.26 1.1,-1.85 v 0.06 a 30,30 0 0 0 0.73,-7.06 29.17,29.17 0 0 0 -0.88,-7.05 31.18,31.18 0 0 0 -1.09,-3.38 31.8,31.8 0 0 0 -1.56,-3.2 c -1.15,-2.09 -2.38,-4.14 -3.62,-6.18 -1.24,-2.04 -2.52,-4.06 -3.7,-6.15 a 30.13,30.13 0 0 1 -2.91,-6.59 16.52,16.52 0 0 1 -0.4,-7.2 27.46,27.46 0 0 1 0.85,-3.51 c 0.34,-1.15 0.71,-2.29 1.12,-3.42 a 28.57,28.57 0 0 1 3.21,-6.46 13.55,13.55 0 0 1 2.43,-2.7 10.55,10.55 0 0 1 3.17,-1.8 14.93,14.93 0 0 1 7.18,-0.73 26.31,26.31 0 0 1 7,1.93 62.24,62.24 0 0 1 12.37,7.31 c 3.87,2.83 7.54,5.91 11.13,9.08 7.15,6.36 13.94,13.12 20.7,19.88 3.42,3.36 6.64,6.87 10.34,9.9 3.7,3.03 7.3,6.18 11,9.2 1.85,1.51 3.71,3 5.6,4.46 0.95,0.71 1.9,1.46 2.87,2.07 0.97,0.61 2.1,1.18 3.14,1.77 a 9.31,9.31 0 0 0 3.2,1.29 26.32,26.32 0 0 0 3.5,0.5 c 2.37,0.2 4.75,0.22 7.15,0.29 a 54.37,54.37 0 0 1 7.15,1 l 3.52,0.68 a 24,24 0 0 1 3.53,0.85 c 2.29,0.76 4.52,1.62 6.78,2.34 a 24.86,24.86 0 0 0 6.84,1.41 24.82,24.82 0 0 0 6.83,-1.43 c 2.26,-0.73 4.48,-1.61 6.77,-2.36 a 24.68,24.68 0 0 1 3.53,-0.85 l 3.53,-0.68 a 54.5,54.5 0 0 1 7.16,-1 c 2.4,-0.08 4.78,-0.09 7.15,-0.29 2.37,-0.2 4.77,-0.51 6.69,-1.78 1,-0.59 2.13,-1.17 3.14,-1.77 1.01,-0.6 1.93,-1.35 2.87,-2.07 1.89,-1.45 3.75,-3 5.6,-4.46 q 5.55,-4.53 11,-9.19 c 3.7,-3 6.92,-6.54 10.34,-9.9 6.77,-6.76 13.55,-13.51 20.71,-19.87 3.58,-3.17 7.26,-6.26 11.13,-9.08 a 62.22,62.22 0 0 1 12.38,-7.31 26.27,26.27 0 0 1 7,-1.93 15,15 0 0 1 7.19,0.73 10.58,10.58 0 0 1 3.21,1.76 13.63,13.63 0 0 1 2.44,2.71 28.65,28.65 0 0 1 3.21,6.47 c 0.41,1.13 0.78,2.27 1.11,3.42 a 27.45,27.45 0 0 1 0.86,3.51 16.54,16.54 0 0 1 -0.4,7.21 30.23,30.23 0 0 1 -2.91,6.6 c -1.18,2.09 -2.47,4.11 -3.7,6.15 -1.23,2.04 -2.47,4.1 -3.62,6.18 a 31.76,31.76 0 0 0 -1.56,3.2 29,29 0 0 0 -1.17,17.46 v -0.09 c 0.4,0.59 0.73,1.23 1.09,1.85 l 1.06,1.87 0.19,0.34 -0.4,0.06 a 2.59,2.59 0 0 0 -1.23,0.47 l -0.27,0.21 -0.14,-0.32 a 4.45,4.45 0 0 0 -1.19,-1.67 2.64,2.64 0 0 0 -1.85,-0.63 2.31,2.31 0 0 0 -1.73,0.86 6.12,6.12 0 0 0 -1,1.86 l -0.63,1.71 0.19,-1.81 a 5,5 0 0 0 -0.52,-3.4 2.73,2.73 0 0 0 -3.07,-0.89 6.36,6.36 0 0 0 -2.63,2.35 c -0.72,1 -1.36,2 -2,3.08 l -0.3,-0.16 a 15.3,15.3 0 0 0 0.92,-2.5 2.66,2.66 0 0 0 -0.36,-2.42 2.38,2.38 0 0 0 -2.25,-0.87 5.8,5.8 0 0 0 -2.35,1.1 l -0.2,0.13 -0.08,-0.25 a 2.48,2.48 0 0 0 -0.51,-1.05 l -0.22,-0.22 0.31,-0.07 a 13,13 0 0 0 7.43,-4.47 14.39,14.39 0 0 0 1.88,-4 l 1.57,-4.2 1.57,-4.2 0.79,-2.1 a 6.6,6.6 0 0 1 1.15,-2 c 1.89,-2.35 4.15,-4.34 6,-6.67 a 21.21,21.21 0 0 0 2.34,-3.77 36.32,36.32 0 0 0 1.81,-4.08 31.58,31.58 0 0 0 2,-8.66 21,21 0 0 0 -0.11,-4.43 9.88,9.88 0 0 0 -1.38,-4.13 c -1.6,-2.48 -4.32,-4 -7,-5.2 a 14,14 0 0 0 -8.68,-0.09 35.93,35.93 0 0 0 -8.15,3.55 87.2,87.2 0 0 0 -14.41,10.56 c -9,7.91 -16.9,16.88 -25.25,25.46 -2,2.2 -4.3,4.18 -6.53,6.17 -2.23,1.99 -4.52,3.93 -6.8,5.86 -2.28,1.93 -4.59,3.84 -6.92,5.72 q -1.74,1.41 -3.52,2.79 -0.89,0.69 -1.8,1.35 a 8.74,8.74 0 0 1 -2,1.13 26.13,26.13 0 0 1 -8.66,2.58 39.8,39.8 0 0 1 -4.52,0.24 24.91,24.91 0 0 1 -4.52,-0.61 20.36,20.36 0 0 0 -2.17,-0.31 8.55,8.55 0 0 0 -1,0 3,3 0 0 0 -0.94,0.23 14.46,14.46 0 0 0 -3.44,2.56 6,6 0 0 0 -1.28,1.63 c -0.16,0.31 -0.31,0.67 -0.53,1 a 4.29,4.29 0 0 0 -0.46,0.9 c -0.42,1.23 0.11,2.64 0.49,4.12 a 7,7 0 0 1 0.23,2.38 17.46,17.46 0 0 1 -0.36,2.28 c -0.33,1.49 -0.75,2.93 -1.21,4.37 -0.23,0.72 -0.48,1.43 -0.73,2.14 a 9.42,9.42 0 0 0 -0.45,2.08 c -0.17,1.45 -0.19,2.94 -0.25,4.43 a 29.32,29.32 0 0 1 -0.4,4.55 27.51,27.51 0 0 1 -1.66,4.28 c -1.26,2.73 -2.61,5.4 -3.95,8.08 -1.34,2.68 -2.7,5.34 -3.92,8 a 9.23,9.23 0 0 0 -1.15,4 3.81,3.81 0 0 0 0.69,1.85 8.42,8.42 0 0 1 1.11,2.09 5.71,5.71 0 0 1 0.13,2.43 17.74,17.74 0 0 1 -0.46,2.26 c -0.38,1.47 -0.85,2.9 -1.29,4.32 a 43.24,43.24 0 0 0 -1.18,4.27 l -0.1,0.54 v 0.51 a 5.18,5.18 0 0 0 0,1 2.88,2.88 0 0 0 1,1.59 l 0.22,0.19 -0.05,0.28 a 10.72,10.72 0 0 0 -0.28,2.64 1.33,1.33 0 0 0 0.1,0.45 c 0.07,0 -0.13,0 0.11,0 l 1.39,-0.13 a 43,43 0 0 0 5.44,-0.9 l 1.62,-0.38 -1.11,1.24 c -1,1.11 -2.13,2 -3.16,2.91 -1.03,0.91 -2,1.95 -3.1,2.9 l -1.61,1.37 a 1.9,1.9 0 0 0 -0.85,1.43 7,7 0 0 0 0.16,1.93 6.38,6.38 0 0 0 0.81,1.78 5.4,5.4 0 0 1 0.82,2.17 5.46,5.46 0 0 1 -0.22,2.32 c -0.48,1.44 -1.22,2.64 -1.66,3.91 a 5.51,5.51 0 0 0 -0.36,1.89 6,6 0 0 0 0.41,1.89 24.55,24.55 0 0 1 1.4,4.09 5.38,5.38 0 0 1 -0.11,2.32 13.51,13.51 0 0 1 -0.78,2.06 9.84,9.84 0 0 0 -1.18,3.8 11.59,11.59 0 0 0 1.2,3.83 11.66,11.66 0 0 1 0.68,2.11 5.27,5.27 0 0 1 0,2.32 39.29,39.29 0 0 1 -1.51,4 5.86,5.86 0 0 0 -0.38,1.9 5.75,5.75 0 0 0 0.39,1.89 35.94,35.94 0 0 1 1.52,4 5.2,5.2 0 0 1 0,2.32 11.87,11.87 0 0 1 -0.69,2.1 11.18,11.18 0 0 0 -1.17,3.84 10.09,10.09 0 0 0 1.19,3.81 13,13 0 0 1 0.76,2.07 5.32,5.32 0 0 1 0.09,2.31 27.74,27.74 0 0 1 -1.43,4.07 6.26,6.26 0 0 0 -0.4,1.9 5.12,5.12 0 0 0 0.37,1.89 c 0.45,1.27 1.2,2.5 1.61,4 a 5.38,5.38 0 0 1 0.15,2.31 10.66,10.66 0 0 1 -0.62,2.13 12.79,12.79 0 0 0 -1.17,3.87 8.94,8.94 0 0 0 1.17,3.79 16.87,16.87 0 0 1 0.83,2 5.28,5.28 0 0 1 0.21,2.29 20.73,20.73 0 0 1 -1.31,4.12 6.5,6.5 0 0 0 -0.43,1.93 5.63,5.63 0 0 0 0.34,1.92 c 0.43,1.28 1.19,2.49 1.69,3.88 a 5.15,5.15 0 0 1 0.3,2.23 9.67,9.67 0 0 1 -0.44,2.15 19.85,19.85 0 0 0 -1.16,4 26.17,26.17 0 0 0 0.49,4.15 l -0.12,-0.14 a 0.27,0.27 0 0 1 0.16,0.19 0.34,0.34 0 0 1 0,0.16 0.71,0.71 0 0 1 -0.07,0.18 l -0.34,-0.19 a 0.34,0.34 0 0 0 0,-0.08 c 0,0 0,0 0,0 a 0.14,0.14 0 0 0 0.08,0.09 l -0.12,-0.14 a 26.29,26.29 0 0 1 -0.65,-4.24 18.77,18.77 0 0 1 1.05,-4.17 6,6 0 0 0 0.06,-3.93 c -0.47,-1.26 -1.27,-2.46 -1.77,-3.85 a 6.27,6.27 0 0 1 -0.41,-2.23 7.29,7.29 0 0 1 0.46,-2.2 20.35,20.35 0 0 0 1.23,-3.94 6.72,6.72 0 0 0 -1,-3.78 9.59,9.59 0 0 1 -1.28,-4.23 13.42,13.42 0 0 1 1.23,-4.21 5.67,5.67 0 0 0 0.44,-3.81 c -0.35,-1.27 -1.09,-2.49 -1.59,-3.88 a 6.15,6.15 0 0 1 -0.43,-2.25 7.26,7.26 0 0 1 0.46,-2.22 27.74,27.74 0 0 0 1.38,-3.91 6.35,6.35 0 0 0 -0.78,-3.79 10.84,10.84 0 0 1 -1.28,-4.23 11.92,11.92 0 0 1 1.24,-4.23 5.89,5.89 0 0 0 0.6,-3.8 37.5,37.5 0 0 0 -1.49,-3.89 6.76,6.76 0 0 1 -0.45,-2.24 7,7 0 0 1 0.43,-2.24 40.88,40.88 0 0 0 1.48,-3.9 6,6 0 0 0 -0.6,-3.79 12.25,12.25 0 0 1 -1.24,-4.23 10.7,10.7 0 0 1 1.26,-4.25 6.28,6.28 0 0 0 0.81,-3.77 24.8,24.8 0 0 0 -1.35,-3.91 7,7 0 0 1 -0.47,-2.24 6.56,6.56 0 0 1 0.42,-2.26 c 0.49,-1.4 1.25,-2.63 1.65,-3.88 a 4.35,4.35 0 0 0 0.18,-1.87 4.31,4.31 0 0 0 -0.67,-1.76 7.46,7.46 0 0 1 -0.92,-2.07 8,8 0 0 1 -0.19,-2.28 2.72,2.72 0 0 1 0.39,-1.24 4.21,4.21 0 0 1 0.81,-0.89 l 1.62,-1.37 c 1,-0.9 2,-1.93 3.09,-2.88 1.09,-0.95 2.19,-1.83 3.08,-2.82 l 0.51,0.86 a 44,44 0 0 1 -5.57,0.92 l -1.39,0.13 a 1.42,1.42 0 0 1 -0.57,0 1.08,1.08 0 0 1 -0.53,-0.44 2.21,2.21 0 0 1 -0.25,-0.89 11.5,11.5 0 0 1 0.3,-2.9 l 0.17,0.47 a 3.91,3.91 0 0 1 -1.32,-2.16 6.1,6.1 0 0 1 -0.06,-1.26 v -0.61 l 0.1,-0.56 a 43.78,43.78 0 0 1 1.21,-4.37 c 0.45,-1.43 0.91,-2.85 1.29,-4.27 a 8.34,8.34 0 0 0 0.35,-4.14 7.58,7.58 0 0 0 -1,-1.85 4.83,4.83 0 0 1 -0.84,-2.31 5.89,5.89 0 0 1 0.38,-2.39 c 0.26,-0.74 0.56,-1.43 0.87,-2.12 1.24,-2.75 2.61,-5.4 3.94,-8.08 1.33,-2.68 2.68,-5.34 3.93,-8 a 27.38,27.38 0 0 0 1.58,-4.07 28.48,28.48 0 0 0 0.37,-4.38 c 0.05,-1.49 0.07,-3 0.25,-4.52 a 10.45,10.45 0 0 1 0.5,-2.3 c 0.25,-0.7 0.49,-1.4 0.72,-2.11 0.46,-1.41 0.88,-2.84 1.19,-4.27 a 16.52,16.52 0 0 0 0.35,-2.14 5.94,5.94 0 0 0 -0.2,-2.07 c -0.17,-0.7 -0.4,-1.42 -0.55,-2.2 a 4.93,4.93 0 0 1 0.09,-2.46 5.26,5.26 0 0 1 0.56,-1.09 c 0.17,-0.28 0.31,-0.61 0.5,-1 a 7,7 0 0 1 1.48,-1.88 c 0.58,-0.53 1.13,-1 1.74,-1.49 a 8.55,8.55 0 0 1 2,-1.26 4,4 0 0 1 1.23,-0.29 9.1,9.1 0 0 1 1.19,0 21.41,21.41 0 0 1 2.27,0.33 24.09,24.09 0 0 0 4.35,0.61 c 1.48,0 3,0 4.43,-0.15 a 21.44,21.44 0 0 0 8.51,-2.23 8.08,8.08 0 0 0 1.9,-1.08 q 0.9,-0.65 1.79,-1.34 1.77,-1.37 3.51,-2.78 3.49,-2.82 6.92,-5.71 3.43,-2.89 6.8,-5.84 c 2.23,-2 4.48,-3.95 6.51,-6.14 8.34,-8.55 16.3,-17.53 25.3,-25.45 a 87.69,87.69 0 0 1 14.5,-10.6 36.38,36.38 0 0 1 8.27,-3.63 14.45,14.45 0 0 1 9,0.12 16,16 0 0 1 2,1 18.44,18.44 0 0 1 1.93,1.18 11.59,11.59 0 0 1 3.21,3.21 10.29,10.29 0 0 1 1.44,4.3 21.35,21.35 0 0 1 0.11,4.52 32,32 0 0 1 -2,8.77 36.47,36.47 0 0 1 -1.83,4.12 21.5,21.5 0 0 1 -2.38,3.83 c -1.87,2.36 -4.14,4.35 -6,6.66 a 6.17,6.17 0 0 0 -1.1,1.88 l -0.79,2.1 -1.58,4.2 -1.6,4.21 a 14.75,14.75 0 0 1 -1.94,4.08 13.32,13.32 0 0 1 -7.64,4.59 l 0.09,-0.29 a 2.82,2.82 0 0 1 0.6,1.24 l -0.27,-0.12 a 6.12,6.12 0 0 1 2.51,-1.16 2.73,2.73 0 0 1 2.57,1 2.48,2.48 0 0 1 0.55,1.32 4.38,4.38 0 0 1 -0.13,1.4 15.56,15.56 0 0 1 -0.95,2.56 l -0.3,-0.16 c 0.64,-1 1.27,-2.11 2,-3.11 a 6.67,6.67 0 0 1 2.78,-2.5 3.12,3.12 0 0 1 3.54,1 5.37,5.37 0 0 1 0.63,3.7 l -0.44,-0.1 a 6.59,6.59 0 0 1 1,-2 2.82,2.82 0 0 1 2.07,-1 3.15,3.15 0 0 1 2.2,0.72 5,5 0 0 1 1.35,1.85 l -0.41,-0.1 a 2.81,2.81 0 0 1 0.71,-0.4 2.15,2.15 0 0 1 0.39,-0.11 l 0.38,-0.08 -0.21,0.4 L 375,144 c -0.37,-0.61 -0.68,-1.23 -1.1,-1.82 v 0 0 a 26,26 0 0 1 -0.61,-3.58 16.62,16.62 0 0 1 -0.1,-3.61 34,34 0 0 1 0.94,-7.15 31.52,31.52 0 0 1 1.11,-3.44 32.1,32.1 0 0 1 1.57,-3.25 c 1.15,-2.11 2.38,-4.16 3.62,-6.2 1.24,-2.04 2.51,-4.07 3.68,-6.15 a 29.69,29.69 0 0 0 2.86,-6.49 16.05,16.05 0 0 0 0.38,-7 27,27 0 0 0 -0.85,-3.45 c -0.34,-1.14 -0.7,-2.27 -1.11,-3.39 a 28.05,28.05 0 0 0 -3.15,-6.47 13.07,13.07 0 0 0 -2.34,-2.6 10.07,10.07 0 0 0 -3,-1.71 14.42,14.42 0 0 0 -6.94,-0.69 25.74,25.74 0 0 0 -6.81,1.9 61.72,61.72 0 0 0 -12.25,7.26 c -3.85,2.82 -7.5,5.9 -11.07,9.07 -7.13,6.36 -13.89,13.12 -20.65,19.88 -3.4,3.34 -6.65,6.9 -10.36,9.95 -3.71,3.05 -7.29,6.19 -11,9.22 -1.86,1.51 -3.71,3 -5.61,4.48 -1,0.73 -1.88,1.46 -2.94,2.13 -1.06,0.67 -2.07,1.17 -3.1,1.75 a 10,10 0 0 1 -3.47,1.36 26.62,26.62 0 0 1 -3.6,0.52 c -2.4,0.21 -4.8,0.23 -7.18,0.31 a 53.81,53.81 0 0 0 -7,1 l -3.52,0.68 c -0.58,0.12 -1.19,0.22 -1.75,0.35 -0.56,0.13 -1.12,0.32 -1.68,0.51 -2.24,0.78 -4.45,1.7 -6.73,2.48 a 23.67,23.67 0 0 1 -7.13,1.58 23.58,23.58 0 0 1 -7.12,-1.6 c -2.27,-0.8 -4.48,-1.74 -6.72,-2.51 a 20.43,20.43 0 0 0 -3.43,-0.85 l -3.52,-0.68 a 54.11,54.11 0 0 0 -7.05,-1 c -2.38,-0.08 -4.78,-0.1 -7.18,-0.3 a 26.66,26.66 0 0 1 -3.59,-0.52 10,10 0 0 1 -3.41,-1.38 c -1,-0.59 -2.06,-1.13 -3.11,-1.75 -1.05,-0.62 -2,-1.4 -2.94,-2.12 -1.9,-1.46 -3.76,-3 -5.61,-4.48 q -5.55,-4.54 -11,-9.22 c -3.71,-3 -7,-6.6 -10.36,-9.94 C 162.31,108.32 155.55,101.56 148.42,95.2 144.81,92 141.15,89 137.3,86.13 A 61.77,61.77 0 0 0 125,78.87 25.75,25.75 0 0 0 118.22,77 a 14.45,14.45 0 0 0 -6.95,0.69 10.06,10.06 0 0 0 -3,1.72 13.09,13.09 0 0 0 -2.38,2.59 28.05,28.05 0 0 0 -3.16,6.35 c -0.41,1.12 -0.77,2.25 -1.11,3.39 a 27.27,27.27 0 0 0 -0.85,3.45 16.06,16.06 0 0 0 0.38,7 29.67,29.67 0 0 0 2.86,6.5 c 1.17,2.08 2.45,4.09 3.68,6.15 1.23,2.06 2.46,4.1 3.62,6.2 a 32.28,32.28 0 0 1 1.57,3.25 31.85,31.85 0 0 1 1.1,3.44 31.12,31.12 0 0 1 0.16,14.32 v 0 0 c -0.41,0.59 -0.73,1.22 -1.09,1.83 l -1.09,1.83 -0.13,-0.26 a 3,3 0 0 1 1.42,0.58 l -0.24,0.06 a 4.83,4.83 0 0 1 1.33,-1.79 3,3 0 0 1 2.11,-0.67 2.65,2.65 0 0 1 1.94,1 6.43,6.43 0 0 1 1,2 h -0.1 a 5.36,5.36 0 0 1 0.57,-3.6 3,3 0 0 1 3.41,-1 6.46,6.46 0 0 1 2.82,2.44 c 0.74,1 1.37,2.06 2,3.11 l -0.39,0.2 a 15.51,15.51 0 0 1 -0.95,-2.57 4.41,4.41 0 0 1 -0.13,-1.41 2.53,2.53 0 0 1 0.56,-1.35 2.78,2.78 0 0 1 2.61,-1 6.18,6.18 0 0 1 2.53,1.17 l -0.35,0.15 a 2.87,2.87 0 0 1 0.61,-1.26 l 0.11,0.37 a 13.37,13.37 0 0 1 -7.67,-4.61 14.84,14.84 0 0 1 -1.94,-4.1 l -1.58,-4.2 -1.57,-4.2 -0.79,-2.1 a 6.15,6.15 0 0 0 -1.09,-1.87 c -1.85,-2.3 -4.12,-4.3 -6,-6.66 a 21.61,21.61 0 0 1 -2.39,-3.84 36.63,36.63 0 0 1 -1.83,-4.12 32,32 0 0 1 -2,-8.78 21.43,21.43 0 0 1 0.11,-4.53 10.34,10.34 0 0 1 1.44,-4.32 11.63,11.63 0 0 1 3.22,-3.22 18.94,18.94 0 0 1 1.94,-1.18 16.17,16.17 0 0 1 2,-1 14.49,14.49 0 0 1 9,-0.11 36.41,36.41 0 0 1 8.28,3.55 87.62,87.62 0 0 1 14.5,10.61 c 9,7.93 17,16.91 25.3,25.46 2,2.2 4.27,4.15 6.51,6.14 2.24,1.99 4.51,3.92 6.8,5.84 2.29,1.92 4.59,3.83 6.91,5.71 q 1.74,1.41 3.51,2.78 c 0.59,0.46 1.18,0.9 1.78,1.34 a 8.06,8.06 0 0 0 1.9,1.08 21.39,21.39 0 0 0 8.5,2.25 c 1.47,0.12 3,0.15 4.43,0.15 a 24,24 0 0 0 4.36,-0.6 21.11,21.11 0 0 1 2.27,-0.33 9.09,9.09 0 0 1 1.19,0 4,4 0 0 1 1.23,0.29 14.81,14.81 0 0 1 3.74,2.74 7.07,7.07 0 0 1 1.47,1.88 c 0.18,0.36 0.32,0.69 0.5,1 a 5.35,5.35 0 0 1 0.56,1.09 4.92,4.92 0 0 1 0.09,2.46 c -0.15,0.78 -0.38,1.5 -0.55,2.2 a 5.94,5.94 0 0 0 -0.2,2.07 16.53,16.53 0 0 0 0.34,2.15 c 0.32,1.44 0.74,2.86 1.19,4.27 0.23,0.71 0.47,1.41 0.72,2.11 a 10.39,10.39 0 0 1 0.5,2.29 c 0.18,1.52 0.2,3 0.26,4.52 a 28.53,28.53 0 0 0 0.38,4.38 27.41,27.41 0 0 0 1.59,4.07 c 1.24,2.7 2.59,5.37 3.93,8 1.34,2.63 2.7,5.33 3.94,8.08 0.31,0.69 0.61,1.38 0.87,2.12 a 5.91,5.91 0 0 1 0.38,2.39 4.83,4.83 0 0 1 -0.84,2.31 7.59,7.59 0 0 0 -1,1.85 8.37,8.37 0 0 0 0.35,4.14 c 0.37,1.42 0.84,2.84 1.28,4.27 a 43.84,43.84 0 0 1 1.21,4.37 l 0.1,0.56 v 0.61 a 6.11,6.11 0 0 1 -0.06,1.26 3.91,3.91 0 0 1 -1.33,2.16 l 0.17,-0.48 a 11.45,11.45 0 0 1 0.3,2.9 2.21,2.21 0 0 1 -0.25,0.89 1.08,1.08 0 0 1 -0.53,0.44 1.41,1.41 0 0 1 -0.57,0 l -1.39,-0.13 a 44.16,44.16 0 0 1 -5.57,-0.92 l 0.51,-0.86 c 0.89,1 2,1.86 3.08,2.82 1.08,0.96 2,2 3.1,2.88 l 1.62,1.37 a 4.17,4.17 0 0 1 0.81,0.89 2.71,2.71 0 0 1 0.39,1.24 7.94,7.94 0 0 1 -0.19,2.28 7.48,7.48 0 0 1 -0.92,2.07 4.29,4.29 0 0 0 -0.67,1.76 4.34,4.34 0 0 0 0.18,1.86 c 0.41,1.25 1.16,2.48 1.65,3.88 a 6.57,6.57 0 0 1 0.42,2.26 7,7 0 0 1 -0.47,2.24 24.83,24.83 0 0 0 -1.35,3.91 6.29,6.29 0 0 0 0.81,3.77 10.72,10.72 0 0 1 1.27,4.25 12.27,12.27 0 0 1 -1.28,4.22 6,6 0 0 0 -0.55,3.8 41.24,41.24 0 0 0 1.48,3.9 6.92,6.92 0 0 1 0.43,2.24 6.77,6.77 0 0 1 -0.45,2.24 37.41,37.41 0 0 0 -1.49,3.89 5.89,5.89 0 0 0 0.6,3.79 12,12 0 0 1 1.24,4.23 10.88,10.88 0 0 1 -1.28,4.23 6.34,6.34 0 0 0 -0.78,3.79 27.9,27.9 0 0 0 1.38,3.91 7.24,7.24 0 0 1 0.46,2.23 6.12,6.12 0 0 1 -0.43,2.25 c -0.5,1.39 -1.24,2.61 -1.59,3.88 a 5.67,5.67 0 0 0 0.44,3.81 13.42,13.42 0 0 1 1.23,4.21 9.58,9.58 0 0 1 -1.28,4.23 6.72,6.72 0 0 0 -1,3.78 20.41,20.41 0 0 0 1.23,3.94 7.31,7.31 0 0 1 0.46,2.2 6.24,6.24 0 0 1 -0.41,2.22 c -0.51,1.39 -1.3,2.59 -1.78,3.85 a 6,6 0 0 0 0.06,3.94 18.76,18.76 0 0 1 1,4.16 26.32,26.32 0 0 1 -0.65,4.24 l -0.1,0.12 a 0.1,0.1 0 0 0 0.06,-0.07 c 0,0 0,0 0,0 a 0.33,0.33 0 0 0 0,0.09 z"
       id="path10881" />
    <path
       class="c"
       d="m 248.6,355.08 a 4.94,4.94 0 0 1 2.08,4.14 11.89,11.89 0 0 1 -0.14,2.55 12.66,12.66 0 0 1 -0.26,1.25 10.8,10.8 0 0 1 -0.49,1.14 83.71,83.71 0 0 0 -4,10 27.38,27.38 0 0 0 -1.19,5.35 9.83,9.83 0 0 0 0.08,2.85 3.93,3.93 0 0 0 1.62,2.61 3.76,3.76 0 0 0 3.08,0.43 5.43,5.43 0 0 0 2.43,-1.74 19.14,19.14 0 0 0 2.74,-4.81 107.52,107.52 0 0 0 3.44,-10.22 c 0.52,-1.71 1,-3.41 1.63,-5.08 a 25.82,25.82 0 0 1 1,-2.42 4.72,4.72 0 0 1 1.31,-1.85 c 0.24,-0.12 0.26,-0.11 0.62,0.05 a 0.76,0.76 0 0 1 0.41,0.6 4.92,4.92 0 0 1 -0.52,2.24 c -0.67,1.59 -1.55,3.15 -2.37,4.75 -1.62,3.18 -3.29,6.54 -3.5,10.34 a 9.14,9.14 0 0 0 0.28,2.86 5.81,5.81 0 0 0 1.51,2.56 9.77,9.77 0 0 0 5.13,2.39 33.92,33.92 0 0 0 10.89,-0.17 62.25,62.25 0 0 0 10.53,-2.56 22.15,22.15 0 0 0 4.82,-2.66 c 1.49,-1 2.91,-2.14 4.3,-3.28 5.56,-4.56 10.79,-9.41 16.31,-13.94 5.52,-4.53 11.22,-8.84 17.64,-12 a 55.9,55.9 0 0 0 -9.54,4.95 99.4,99.4 0 0 0 -8.76,6.26 q -4.22,3.34 -8.27,6.85 c -2.71,2.34 -5.39,4.69 -8.15,6.94 -1.38,1.12 -2.78,2.21 -4.23,3.21 a 21,21 0 0 1 -4.54,2.5 61.11,61.11 0 0 1 -10.3,2.48 32.79,32.79 0 0 1 -10.46,0.16 8.56,8.56 0 0 1 -4.46,-2 5.54,5.54 0 0 1 -1.4,-4.46 c 0.19,-3.41 1.76,-6.67 3.38,-9.8 0.81,-1.58 1.7,-3.13 2.43,-4.84 a 5.94,5.94 0 0 0 0.59,-2.95 2.09,2.09 0 0 0 -1.06,-1.53 2.8,2.8 0 0 0 -0.4,-0.18 1.77,1.77 0 0 0 -0.51,-0.11 1.7,1.7 0 0 0 -1,0.25 3.62,3.62 0 0 0 -1.13,1.16 10,10 0 0 0 -0.69,1.25 27.09,27.09 0 0 0 -1,2.55 c -0.6,1.71 -1.12,3.43 -1.63,5.14 -1,3.42 -2,6.85 -3.37,10.11 a 18,18 0 0 1 -2.53,4.49 4.26,4.26 0 0 1 -1.85,1.37 2.56,2.56 0 0 1 -2.06,-0.29 2.72,2.72 0 0 1 -1.1,-1.84 8.69,8.69 0 0 1 -0.07,-2.49 26.21,26.21 0 0 1 1.13,-5.11 82.48,82.48 0 0 1 4,-9.88 10.73,10.73 0 0 0 0.55,-1.33 13.51,13.51 0 0 0 0.28,-1.37 13,13 0 0 0 0.15,-2.79 7.77,7.77 0 0 0 -0.66,-2.8 5.12,5.12 0 0 0 -2,-2.23 z"
       id="path10883" />
    <path
       class="c"
       d="m 239.55,355.08 a 4.94,4.94 0 0 0 -2.08,4.14 11.89,11.89 0 0 0 0.14,2.55 12.66,12.66 0 0 0 0.26,1.25 10.8,10.8 0 0 0 0.49,1.14 83.71,83.71 0 0 1 4,10 27.38,27.38 0 0 1 1.19,5.35 9.83,9.83 0 0 1 -0.08,2.85 3.93,3.93 0 0 1 -1.57,2.64 3.76,3.76 0 0 1 -3.08,0.43 5.43,5.43 0 0 1 -2.43,-1.74 19.14,19.14 0 0 1 -2.74,-4.81 107.52,107.52 0 0 1 -3.44,-10.22 c -0.52,-1.71 -1,-3.41 -1.63,-5.08 a 25.82,25.82 0 0 0 -1,-2.42 4.72,4.72 0 0 0 -1.31,-1.85 c -0.24,-0.12 -0.26,-0.11 -0.62,0.05 a 0.76,0.76 0 0 0 -0.41,0.6 4.92,4.92 0 0 0 0.52,2.24 c 0.67,1.59 1.55,3.15 2.37,4.75 1.62,3.18 3.29,6.54 3.5,10.34 a 9.14,9.14 0 0 1 -0.28,2.86 5.81,5.81 0 0 1 -1.51,2.56 9.77,9.77 0 0 1 -5.13,2.39 33.92,33.92 0 0 1 -10.89,-0.17 62.24,62.24 0 0 1 -10.53,-2.56 22.15,22.15 0 0 1 -4.82,-2.66 c -1.49,-1 -2.91,-2.14 -4.3,-3.28 -5.56,-4.56 -10.79,-9.41 -16.31,-13.94 -5.52,-4.53 -11.22,-8.84 -17.64,-12 a 55.9,55.9 0 0 1 9.54,4.95 99.4,99.4 0 0 1 8.76,6.26 q 4.22,3.34 8.27,6.85 c 2.71,2.34 5.39,4.69 8.15,6.94 1.38,1.12 2.78,2.21 4.23,3.21 a 21,21 0 0 0 4.54,2.5 61.11,61.11 0 0 0 10.3,2.48 32.79,32.79 0 0 0 10.46,0.16 8.56,8.56 0 0 0 4.46,-2 5.54,5.54 0 0 0 1.4,-4.46 c -0.19,-3.41 -1.76,-6.67 -3.38,-9.8 -0.81,-1.58 -1.7,-3.13 -2.43,-4.84 a 5.94,5.94 0 0 1 -0.59,-2.95 2.09,2.09 0 0 1 1.06,-1.53 2.8,2.8 0 0 1 0.4,-0.18 1.77,1.77 0 0 1 0.51,-0.11 1.7,1.7 0 0 1 1,0.25 3.62,3.62 0 0 1 1.13,1.16 10,10 0 0 1 0.69,1.25 27.09,27.09 0 0 1 1,2.55 c 0.6,1.71 1.12,3.43 1.63,5.14 1,3.42 2,6.85 3.37,10.11 a 18,18 0 0 0 2.53,4.49 4.26,4.26 0 0 0 1.85,1.37 2.56,2.56 0 0 0 2.06,-0.29 2.72,2.72 0 0 0 1.1,-1.84 8.69,8.69 0 0 0 0.07,-2.49 26.21,26.21 0 0 0 -1.13,-5.11 82.48,82.48 0 0 0 -4,-9.88 10.73,10.73 0 0 1 -0.55,-1.33 13.51,13.51 0 0 1 -0.28,-1.37 13,13 0 0 1 -0.15,-2.79 7.77,7.77 0 0 1 0.66,-2.8 5.12,5.12 0 0 1 2,-2.23 z"
       id="path10885" />
    <g
       class="k"
       clip-path="url(#c)"
       id="g10889">
      <rect
         class="l"
         x="214.62"
         y="336.23001"
         width="26.9"
         height="27.08"
         transform="rotate(-51.3,228.06841,349.76893)"
         id="rect10887"
         style="fill:url(#linearGradient465)" />
    </g>
    <path
       class="c"
       d="m 237.65,359.14 a 16.64,16.64 0 0 1 -2,-1.3 l -2,-1.36 -1,-0.65 c -0.33,-0.18 -0.71,-0.51 -0.86,-0.39 -0.15,0.12 -0.58,0.4 -1.14,0.47 a 2.7,2.7 0 0 1 -1.32,-0.22 v 0 a 0.4,0.4 0 0 0 -0.15,0 c 0,0 0,0 -0.16,0 -0.16,0 -0.36,0.13 -0.55,0.17 a 7.07,7.07 0 0 1 -1.13,0.21 7,7 0 0 1 -2.29,-0.17 6.71,6.71 0 0 1 -3.77,-2.54 7,7 0 0 1 -0.6,-1 c -0.09,-0.18 -0.17,-0.35 -0.24,-0.54 l -0.09,-0.24 v 0 c 0,0 -0.23,-0.08 -0.41,-0.18 a 3.16,3.16 0 0 1 -1.4,-1.25 3.43,3.43 0 0 1 0.86,-4.54 v 0 l -0.11,0.67 a 3.73,3.73 0 0 1 -0.67,-2.54 3.86,3.86 0 0 1 1.14,-2.37 3.79,3.79 0 0 1 2.41,-1.09 3.84,3.84 0 0 1 2.54,0.74 h -0.67 c 0,0 -0.06,0.08 0,-0.07 v 0 0 a 3.41,3.41 0 0 1 5.63,1.15 l -0.35,-0.31 a 6.68,6.68 0 0 1 4.58,4.14 l 0.12,0.33 0.05,0.18 c 0,0 0,0 0,0 a 5.33,5.33 0 0 1 0.45,0.48 2.26,2.26 0 0 1 -0.15,2.91 2.45,2.45 0 0 1 -0.27,0.25 0.36,0.36 0 0 0 -0.1,0.14 v 0 a 6.06,6.06 0 0 1 -0.87,1.77 v 0 a 0.36,0.36 0 0 0 -0.05,0.28 2.63,2.63 0 0 1 0.12,0.59 0.75,0.75 0 0 1 0,0.22 0.64,0.64 0 0 1 -0.1,0.22 l -0.12,0.17 a 0.38,0.38 0 0 0 0.13,0.17 l 1.59,1.44 3.22,2.88 -0.14,0.17 -3.36,-2.72 c -0.56,-0.46 -1.12,-0.9 -1.67,-1.39 a 1,1 0 0 1 -0.23,-0.27 0.56,0.56 0 0 1 -0.05,-0.48 1.34,1.34 0 0 1 0.17,-0.28 c 0,-0.07 0,0.05 0,-0.07 a 2.05,2.05 0 0 0 -0.11,-0.46 1,1 0 0 1 0.08,-0.76 v 0 a 5.42,5.42 0 0 0 0.72,-1.61 v 0 0 a 1,1 0 0 1 0.27,-0.41 1.8,1.8 0 0 0 0.21,-0.21 1.54,1.54 0 0 0 0.3,-1.52 1.53,1.53 0 0 0 -0.26,-0.46 c -0.11,-0.16 -0.22,-0.18 -0.48,-0.47 a 0.84,0.84 0 0 1 -0.14,-0.28 v -0.14 l -0.11,-0.29 c -0.08,-0.19 -0.17,-0.38 -0.27,-0.56 a 5.78,5.78 0 0 0 -3.79,-2.9 l -0.26,-0.06 -0.09,-0.25 a 2.39,2.39 0 0 0 -3.94,-0.77 v 0 a 0.66,0.66 0 0 1 -0.14,0.18 l -0.32,0.29 -0.35,-0.25 a 2.9,2.9 0 0 0 -1.85,-0.54 2.76,2.76 0 0 0 -1.76,0.78 2.84,2.84 0 0 0 -0.85,1.74 2.87,2.87 0 0 0 0.47,1.88 l 0.27,0.4 -0.38,0.27 v 0 a 2.48,2.48 0 0 0 -0.65,3.27 2.24,2.24 0 0 0 1,0.91 3.27,3.27 0 0 1 0.57,0.29 1,1 0 0 1 0.3,0.39 l 0.1,0.28 c 0.06,0.16 0.12,0.32 0.19,0.47 a 6,6 0 0 0 0.51,0.88 5.91,5.91 0 0 0 3.27,2.32 6,6 0 0 0 3.07,0 c 0.17,0 0.33,-0.09 0.5,-0.14 a 1.15,1.15 0 0 1 0.36,-0.08 1.06,1.06 0 0 1 0.38,0.07 v 0 a 2.1,2.1 0 0 0 1,0.2 c 0.26,0 0.56,-0.3 1.06,-0.43 a 0.8,0.8 0 0 1 0.44,0 1.92,1.92 0 0 1 0.33,0.16 l 0.52,0.33 1,0.68 1.95,1.41 a 12,12 0 0 1 1.83,1.57 z"
       id="path10891" />
    <g
       class="m"
       clip-path="url(#e)"
       id="g10895">
      <rect
         class="n"
         x="246.57001"
         y="336.5"
         width="27.07"
         height="26.9"
         transform="rotate(-38.7,260.09612,349.94285)"
         id="rect10893"
         style="fill:url(#f)" />
    </g>
    <path
       class="c"
       d="m 250.45,359.21 a 11.87,11.87 0 0 1 1.83,-1.57 l 1.95,-1.41 1,-0.68 0.52,-0.33 a 1.81,1.81 0 0 1 0.33,-0.16 0.77,0.77 0 0 1 0.44,0 c 0.5,0.13 0.8,0.43 1.06,0.43 a 2.1,2.1 0 0 0 1,-0.2 v 0 a 1.08,1.08 0 0 1 0.38,-0.07 1.19,1.19 0 0 1 0.37,0.08 c 0.16,0.05 0.33,0.11 0.5,0.14 a 6.41,6.41 0 0 0 1,0.16 6.27,6.27 0 0 0 2,-0.2 5.91,5.91 0 0 0 3.78,-3.2 c 0.07,-0.15 0.14,-0.31 0.19,-0.47 l 0.1,-0.28 a 1,1 0 0 1 0.3,-0.39 3.28,3.28 0 0 1 0.57,-0.29 2.42,2.42 0 0 0 0.39,-0.24 2.39,2.39 0 0 0 0.6,-0.68 2.47,2.47 0 0 0 -0.64,-3.27 v 0 l -0.38,-0.28 0.27,-0.4 a 2.87,2.87 0 0 0 0.47,-1.88 2.83,2.83 0 0 0 -0.85,-1.74 2.75,2.75 0 0 0 -1.76,-0.78 2.88,2.88 0 0 0 -1.85,0.54 l -0.35,0.25 -0.32,-0.29 a 0.7,0.7 0 0 1 -0.14,-0.18 v 0 a 2.39,2.39 0 0 0 -3.94,0.77 l -0.09,0.25 L 259,343 a 5.78,5.78 0 0 0 -3.79,2.9 5.75,5.75 0 0 0 -0.27,0.56 l -0.11,0.29 v 0.14 a 0.83,0.83 0 0 1 -0.14,0.28 c -0.26,0.29 -0.36,0.31 -0.48,0.47 a 1.49,1.49 0 0 0 -0.26,0.46 1.53,1.53 0 0 0 0.3,1.51 1.72,1.72 0 0 0 0.21,0.21 1,1 0 0 1 0.27,0.41 v 0 a 5.44,5.44 0 0 0 0.72,1.61 v 0 a 1,1 0 0 1 0.08,0.76 2,2 0 0 0 -0.11,0.46 c 0,0.13 0,0 0,0.08 a 1.35,1.35 0 0 1 0.17,0.28 0.56,0.56 0 0 1 -0.05,0.49 1.07,1.07 0 0 1 -0.23,0.27 c -0.55,0.48 -1.11,0.93 -1.67,1.39 l -3.36,2.72 -0.15,-0.17 3.22,-2.88 1.65,-1.44 c 0.12,-0.1 0.15,-0.22 0.13,-0.17 -0.02,0.05 -0.05,-0.07 -0.12,-0.17 a 0.63,0.63 0 0 1 -0.1,-0.22 0.78,0.78 0 0 1 0,-0.22 2.66,2.66 0 0 1 0.12,-0.59 0.36,0.36 0 0 0 -0.05,-0.28 v 0 a 6.06,6.06 0 0 1 -0.86,-1.77 v 0 a 0.36,0.36 0 0 0 -0.1,-0.14 2.37,2.37 0 0 1 -0.27,-0.25 2.27,2.27 0 0 1 -0.15,-2.91 5,5 0 0 1 0.45,-0.47 c 0,0 0,0 0,0 l 0.05,-0.18 0.12,-0.33 q 0.12,-0.33 0.28,-0.65 a 6.65,6.65 0 0 1 4.3,-3.49 l -0.35,0.31 a 3.41,3.41 0 0 1 5.63,-1.15 v 0 0 c 0.1,0.15 0.06,0.09 0,0.07 h -0.67 a 3.84,3.84 0 0 1 6.09,2.73 3.74,3.74 0 0 1 -0.67,2.54 l -0.11,-0.67 v 0 a 3.43,3.43 0 0 1 0.86,4.54 3.3,3.3 0 0 1 -0.85,0.93 3.38,3.38 0 0 1 -0.54,0.32 c -0.18,0.09 -0.42,0.16 -0.41,0.18 v 0 l -0.09,0.24 q -0.11,0.27 -0.24,0.53 a 6.73,6.73 0 0 1 -4.38,3.54 6.7,6.7 0 0 1 -3.42,0 5.43,5.43 0 0 1 -0.55,-0.17 c -0.12,0 -0.12,0 -0.16,0 h -0.15 v 0 a 2.7,2.7 0 0 1 -1.32,0.22 c -0.56,-0.07 -0.86,-0.43 -1.14,-0.47 -0.28,-0.04 -0.53,0.22 -0.86,0.39 l -1,0.65 -2,1.36 a 16.92,16.92 0 0 1 -2,1.3 z"
       id="path10897" />
    <path
       class="o"
       d="m 242.31,355.49 a 8.73,8.73 0 0 1 -3.81,-0.64 5.4,5.4 0 0 0 1.56,-1.64 c 0.51,0.45 2.33,2.07 2.25,2.28"
       id="path10899" />
    <path
       class="p"
       d="m 242.31,355.49 a 8.73,8.73 0 0 1 -3.81,-0.64 5.4,5.4 0 0 0 1.56,-1.64 c 0.5,0.45 2.32,2.07 2.25,2.28 z"
       id="path10901" />
    <path
       class="o"
       d="m 245.84,355.49 a 8.73,8.73 0 0 0 3.81,-0.64 5.4,5.4 0 0 1 -1.56,-1.64 c -0.51,0.45 -2.33,2.07 -2.25,2.28"
       id="path10903" />
    <path
       class="p"
       d="m 245.84,355.49 a 8.73,8.73 0 0 0 3.81,-0.64 5.4,5.4 0 0 1 -1.56,-1.64 c -0.5,0.45 -2.33,2.07 -2.25,2.28 z"
       id="path10905" />
    <line
       class="q"
       x1="402.48999"
       y1="173.21001"
       x2="365.47"
       y2="173.21001"
       id="line11255" />
    <line
       class="r"
       x1="403.07001"
       y1="172.36"
       x2="366.60999"
       y2="172.36"
       id="line11257" />
    <path
       class="s"
       d="m 366.7,170.55 a 1.8,1.8 0 1 0 1.8,1.81 1.8,1.8 0 0 0 -1.8,-1.81"
       id="path11259" />
    <text
       xml:space="preserve"
       style="font-style:normal;font-weight:normal;font-size:40px;line-height:1.25;font-family:sans-serif;fill:#000000;fill-opacity:1;stroke:none"
       x="407.32574"
       y="184.09485"
       id="text463"><tspan
         sodipodi:role="line"
         id="tspan461"
         x="407.32574"
         y="184.09485">?</tspan></text>
  </g>
</svg>
